<svg width="40" height="40" viewBox="0 0 40 40" fill="none" xmlns="http://www.w3.org/2000/svg">
<g clip-path="url(#clip0_19191_16576)">
<path d="M40 20C40 31.04 31.05 40 20 40C8.95 40 0 31.04 0 20C0 8.95 8.95 0 20 0C31.05 0 40 8.95 40 20Z" fill="#283544"/>
<path d="M27.4683 15.8217C27.3755 15.8774 25.1672 17.0531 25.1672 19.6598C25.2712 22.6326 27.954 23.6752 28 23.6752C27.954 23.7309 27.595 25.0954 26.5315 26.5257C25.6876 27.7578 24.7508 29 23.3284 29C21.9753 29 21.4896 28.1788 19.9284 28.1788C18.2517 28.1788 17.7773 29 16.4937 29C15.0712 29 14.0651 27.6912 13.1751 26.4707C12.0189 24.8732 11.0362 22.3664 11.0015 19.9593C10.9781 18.6838 11.233 17.43 11.8801 16.3651C12.7935 14.8783 14.4241 13.869 16.2048 13.8358C17.5692 13.7916 18.7835 14.7343 19.6161 14.7343C20.4141 14.7343 21.9059 13.8358 23.5939 13.8358C24.3224 13.8365 26.2653 14.047 27.4683 15.8217ZM19.5007 13.5811C19.2579 12.4163 19.9284 11.2515 20.5529 10.5085C21.3508 9.6099 22.6111 9 23.6979 9C23.7673 10.1648 23.3276 11.3072 22.5417 12.1392C21.8365 13.0378 20.6223 13.7142 19.5007 13.5811Z" fill="white"/>
</g>
<defs>
<clipPath id="clip0_19191_16576">
<rect width="40" height="40" fill="white"/>
</clipPath>
</defs>
</svg>
