<svg width="142" height="48" viewBox="0 0 142 48" fill="none" xmlns="http://www.w3.org/2000/svg">
<rect x="1.1875" y="1" width="140" height="46" rx="6.5" fill="black"/>
<rect x="1.1875" y="1" width="140" height="46" rx="6.5" stroke="#A6A6A6"/>
<path d="M96.4804 23.0614V25.7534H94.793V27.5187H96.4804V33.5171C96.4804 35.5653 97.4069 36.3846 99.738 36.3846C100.148 36.3846 100.538 36.3358 100.879 36.2773V34.5314C100.587 34.5607 100.401 34.5802 100.079 34.5802C99.0357 34.5802 98.5773 34.0925 98.5773 32.9806V27.5187H100.879V25.7534H98.5773V23.0614H96.4804Z" fill="white"/>
<path d="M106.817 36.5309C109.919 36.5309 111.821 34.4534 111.821 31.0104C111.821 27.587 109.909 25.4998 106.817 25.4998C103.716 25.4998 101.804 27.587 101.804 31.0104C101.804 34.4534 103.706 36.5309 106.817 36.5309ZM106.817 34.668C104.994 34.668 103.969 33.3318 103.969 31.0104C103.969 28.7086 104.994 27.3627 106.817 27.3627C108.632 27.3627 109.665 28.7086 109.665 31.0104C109.665 33.322 108.632 34.668 106.817 34.668Z" fill="white"/>
<path d="M113.448 36.3261H115.545V30.0546C115.545 28.5623 116.667 27.5577 118.257 27.5577C118.627 27.5577 119.251 27.626 119.427 27.6845V25.6168C119.203 25.5583 118.803 25.529 118.491 25.529C117.106 25.529 115.926 26.2898 115.623 27.3334H115.467V25.7046H113.448V36.3261Z" fill="white"/>
<path d="M124.634 27.2846C126.185 27.2846 127.199 28.3673 127.248 30.0351H121.883C122 28.377 123.083 27.2846 124.634 27.2846ZM127.238 33.4586C126.848 34.2876 125.98 34.746 124.712 34.746C123.034 34.746 121.952 33.5658 121.883 31.7029V31.5859H129.384V30.8544C129.384 27.5187 127.599 25.4998 124.644 25.4998C121.649 25.4998 119.747 27.6553 119.747 31.0495C119.747 34.4437 121.61 36.5309 124.653 36.5309C127.082 36.5309 128.779 35.3605 129.257 33.4586H127.238Z" fill="white"/>
<path d="M82.7286 32.4037C82.8904 35.0119 85.0639 36.6799 88.2988 36.6799C91.7561 36.6799 93.9194 34.931 93.9194 32.1409C93.9194 29.9472 92.6861 28.7341 89.6938 28.0366L88.0865 27.6423C86.186 27.1975 85.4177 26.6011 85.4177 25.5598C85.4177 24.2456 86.6105 23.3864 88.3999 23.3864C90.0982 23.3864 91.2709 24.2254 91.4831 25.5699H93.6869C93.5555 23.1134 91.3922 21.3848 88.4302 21.3848C85.2458 21.3848 83.1229 23.1134 83.1229 25.7115C83.1229 27.8546 84.3259 29.1284 86.9644 29.745L88.8447 30.1999C90.7755 30.6548 91.6247 31.322 91.6247 32.434C91.6247 33.728 90.2903 34.6682 88.4706 34.6682C86.5196 34.6682 85.1649 33.7887 84.9729 32.4037H82.7286Z" fill="white"/>
<path d="M61.006 25.529C59.5625 25.529 58.3141 26.2508 57.6704 27.4602H57.5143V25.7046H55.4953V39.8568H57.5923V34.7167H57.7581C58.3141 35.8384 59.5138 36.5016 61.0255 36.5016C63.7077 36.5016 65.4146 34.3851 65.4146 31.0104C65.4146 27.6358 63.7077 25.529 61.006 25.529ZM60.4111 34.6192C58.6554 34.6192 57.5533 33.2342 57.5533 31.0202C57.5533 28.7964 58.6554 27.4114 60.4208 27.4114C62.1959 27.4114 63.2591 28.7672 63.2591 31.0104C63.2591 33.2635 62.1959 34.6192 60.4111 34.6192Z" fill="white"/>
<path d="M72.7523 25.529C71.3088 25.529 70.0603 26.2508 69.4166 27.4602H69.2605V25.7046H67.2416V39.8568H69.3386V34.7167H69.5044C70.0603 35.8384 71.26 36.5016 72.7718 36.5016C75.454 36.5016 77.1608 34.3851 77.1608 31.0104C77.1608 27.6358 75.454 25.529 72.7523 25.529ZM72.1573 34.6192C70.4017 34.6192 69.2995 33.2342 69.2995 31.0202C69.2995 28.7964 70.4017 27.4114 72.1671 27.4114C73.9422 27.4114 75.0053 28.7672 75.0053 31.0104C75.0053 33.2635 73.9422 34.6192 72.1573 34.6192Z" fill="white"/>
<path d="M51.733 36.3261H54.139L48.8721 21.7386H46.4358L41.1689 36.3261H43.494L44.8386 32.4543H50.3986L51.733 36.3261ZM47.5377 24.3872H47.7096L49.8224 30.5537H45.4148L47.5377 24.3872Z" fill="white"/>
<path d="M42.5771 10.7349V17.772H45.1179C47.2149 17.772 48.4292 16.4797 48.4292 14.2315C48.4292 12.0175 47.2051 10.7349 45.1179 10.7349H42.5771ZM43.6695 11.7298H44.996C46.4541 11.7298 47.3173 12.6563 47.3173 14.2461C47.3173 15.8603 46.4688 16.7772 44.996 16.7772H43.6695V11.7298Z" fill="white"/>
<path d="M52.1482 17.8744C53.699 17.8744 54.6499 16.8357 54.6499 15.1142C54.6499 13.4025 53.6941 12.3589 52.1482 12.3589C50.5974 12.3589 49.6416 13.4025 49.6416 15.1142C49.6416 16.8357 50.5925 17.8744 52.1482 17.8744ZM52.1482 16.943C51.2362 16.943 50.7242 16.2749 50.7242 15.1142C50.7242 13.9633 51.2362 13.2903 52.1482 13.2903C53.0552 13.2903 53.5722 13.9633 53.5722 15.1142C53.5722 16.27 53.0552 16.943 52.1482 16.943Z" fill="white"/>
<path d="M62.7482 12.4613H61.6997L60.7536 16.5138H60.6707L59.5783 12.4613H58.5737L57.4813 16.5138H57.4033L56.4524 12.4613H55.3892L56.8523 17.772H57.93L59.0224 13.8609H59.1053L60.2026 17.772H61.2901L62.7482 12.4613Z" fill="white"/>
<path d="M63.9557 17.772H65.0042V14.6655C65.0042 13.8365 65.4967 13.3196 66.2721 13.3196C67.0475 13.3196 67.4181 13.7438 67.4181 14.5973V17.772H68.4666V14.3339C68.4666 13.0709 67.8131 12.3589 66.6281 12.3589C65.8283 12.3589 65.3016 12.7149 65.0432 13.3049H64.9651V12.4613H63.9557V17.772Z" fill="white"/>
<path d="M70.1179 17.772H71.1664V10.3887H70.1179V17.772Z" fill="white"/>
<path d="M75.1097 17.8744C76.6605 17.8744 77.6114 16.8357 77.6114 15.1142C77.6114 13.4025 76.6556 12.3589 75.1097 12.3589C73.5589 12.3589 72.6031 13.4025 72.6031 15.1142C72.6031 16.8357 73.554 17.8744 75.1097 17.8744ZM75.1097 16.943C74.1977 16.943 73.6857 16.2749 73.6857 15.1142C73.6857 13.9633 74.1977 13.2903 75.1097 13.2903C76.0167 13.2903 76.5337 13.9633 76.5337 15.1142C76.5337 16.27 76.0167 16.943 75.1097 16.943Z" fill="white"/>
<path d="M80.7354 16.9771C80.1649 16.9771 79.7504 16.6991 79.7504 16.2212C79.7504 15.7531 80.082 15.5043 80.8135 15.4556L82.1107 15.3727V15.8164C82.1107 16.4748 81.5255 16.9771 80.7354 16.9771ZM80.4672 17.8598C81.1646 17.8598 81.7449 17.5574 82.0619 17.0259H82.1448V17.772H83.1543V14.1437C83.1543 13.0221 82.4033 12.3589 81.0719 12.3589C79.8674 12.3589 79.0091 12.9441 78.9018 13.856H79.9162C80.0332 13.4805 80.438 13.2659 81.0232 13.2659C81.7401 13.2659 82.1107 13.5829 82.1107 14.1437V14.6021L80.6721 14.6851C79.409 14.7631 78.697 15.3141 78.697 16.27C78.697 17.2404 79.4431 17.8598 80.4672 17.8598Z" fill="white"/>
<path d="M86.7123 17.8598C87.4439 17.8598 88.0632 17.5135 88.3802 16.9332H88.4631V17.772H89.4677V10.3887H88.4192V13.3049H88.3412C88.0534 12.7197 87.439 12.3735 86.7123 12.3735C85.3713 12.3735 84.5081 13.4366 84.5081 15.1142C84.5081 16.7967 85.3615 17.8598 86.7123 17.8598ZM87.0098 13.3147C87.8876 13.3147 88.4387 14.0121 88.4387 15.1191C88.4387 16.231 87.8925 16.9186 87.0098 16.9186C86.1223 16.9186 85.5907 16.2407 85.5907 15.1142C85.5907 13.9974 86.1271 13.3147 87.0098 13.3147Z" fill="white"/>
<path d="M96.2668 17.8744C97.8176 17.8744 98.7685 16.8357 98.7685 15.1142C98.7685 13.4025 97.8127 12.3589 96.2668 12.3589C94.716 12.3589 93.7602 13.4025 93.7602 15.1142C93.7602 16.8357 94.7111 17.8744 96.2668 17.8744ZM96.2668 16.943C95.3549 16.943 94.8428 16.2749 94.8428 15.1142C94.8428 13.9633 95.3549 13.2903 96.2668 13.2903C97.1739 13.2903 97.6908 13.9633 97.6908 15.1142C97.6908 16.27 97.1739 16.943 96.2668 16.943Z" fill="white"/>
<path d="M100.156 17.772H101.205V14.6655C101.205 13.8365 101.698 13.3196 102.473 13.3196C103.248 13.3196 103.619 13.7438 103.619 14.5973V17.772H104.667V14.3339C104.667 13.0709 104.014 12.3589 102.829 12.3589C102.029 12.3589 101.502 12.7149 101.244 13.3049H101.166V12.4613H100.156V17.772Z" fill="white"/>
<path d="M109.496 11.1397V12.4857H108.653V13.3683H109.496V16.3675C109.496 17.3916 109.96 17.8013 111.125 17.8013C111.33 17.8013 111.525 17.7769 111.696 17.7476V16.8747C111.549 16.8893 111.457 16.8991 111.296 16.8991C110.774 16.8991 110.545 16.6552 110.545 16.0993V13.3683H111.696V12.4857H110.545V11.1397H109.496Z" fill="white"/>
<path d="M113.103 17.772H114.152V14.6704C114.152 13.8658 114.63 13.3245 115.488 13.3245C116.229 13.3245 116.624 13.7536 116.624 14.6021V17.772H117.673V14.3437C117.673 13.0806 116.975 12.3637 115.844 12.3637C115.044 12.3637 114.483 12.7197 114.225 13.3147H114.142V10.3887H113.103V17.772Z" fill="white"/>
<path d="M121.455 13.2513C122.23 13.2513 122.738 13.7926 122.762 14.6265H120.08C120.138 13.7975 120.68 13.2513 121.455 13.2513ZM122.757 16.3383C122.562 16.7528 122.128 16.982 121.494 16.982C120.655 16.982 120.114 16.3919 120.08 15.4604V15.4019H123.83V15.0362C123.83 13.3683 122.938 12.3589 121.46 12.3589C119.963 12.3589 119.012 13.4366 119.012 15.1337C119.012 16.8308 119.943 17.8744 121.465 17.8744C122.679 17.8744 123.528 17.2892 123.767 16.3383H122.757Z" fill="white"/>
<path d="M29.7911 24.353C29.8166 22.3778 30.8773 20.5089 32.5601 19.4743C31.4985 17.9582 29.7204 16.997 27.8705 16.9391C25.8974 16.732 23.9845 18.1197 22.9791 18.1197C21.9542 18.1197 20.4061 16.9596 18.7391 16.9939C16.5662 17.0641 14.5406 18.2995 13.4834 20.1992C11.211 24.1336 12.906 29.9158 15.0828 33.0961C16.1719 34.6534 17.4448 36.3929 19.1103 36.3312C20.7401 36.2636 21.3488 35.2919 23.3161 35.2919C25.2651 35.2919 25.8362 36.3312 27.5355 36.292C29.2843 36.2636 30.3862 34.7278 31.4371 33.1557C32.2196 32.0461 32.8218 30.8197 33.2212 29.522C31.166 28.6528 29.7935 26.5845 29.7911 24.353Z" fill="white"/>
<path d="M26.5814 14.8476C27.535 13.7029 28.0048 12.2316 27.891 10.7461C26.4342 10.8991 25.0885 11.5954 24.1221 12.6961C23.1771 13.7716 22.6853 15.2171 22.7782 16.6458C24.2356 16.6608 25.6682 15.9834 26.5814 14.8476Z" fill="white"/>
</svg>
