<svg width="48" height="49" viewBox="0 0 48 49" fill="none" xmlns="http://www.w3.org/2000/svg">
<g id="info-hexagon">
<path id="Icon" d="M24 32.4992V24.4992M24 16.4992H24.02M6 16.3821V32.6163C6 33.3016 6 33.6442 6.10097 33.9498C6.19029 34.2202 6.33632 34.4683 6.52927 34.6777C6.74737 34.9144 7.0469 35.0808 7.64594 35.4136L22.4459 43.6358C23.0132 43.9509 23.2968 44.1085 23.5971 44.1703C23.8629 44.2249 24.1371 44.2249 24.4029 44.1703C24.7032 44.1085 24.9868 43.9509 25.5541 43.6358L40.3541 35.4136C40.9531 35.0808 41.2526 34.9144 41.4707 34.6777C41.6637 34.4683 41.8097 34.2202 41.899 33.9498C42 33.6442 42 33.3016 42 32.6163V16.3821C42 15.6968 42 15.3542 41.899 15.0486C41.8097 14.7782 41.6637 14.53 41.4707 14.3207C41.2526 14.084 40.9531 13.9176 40.3541 13.5848L25.5541 5.36256C24.9868 5.04744 24.7032 4.88988 24.4029 4.82811C24.1371 4.77344 23.8629 4.77344 23.5971 4.82811C23.2968 4.88988 23.0132 5.04744 22.4459 5.36256L7.64594 13.5848C7.04689 13.9176 6.74737 14.084 6.52927 14.3207C6.33632 14.53 6.19029 14.7782 6.10097 15.0486C6 15.3542 6 15.6968 6 16.3821Z" stroke="#207B63" stroke-width="2" stroke-linecap="round" stroke-linejoin="round"/>
</g>
</svg>
