<svg width="40" height="40" viewBox="0 0 40 40" fill="none" xmlns="http://www.w3.org/2000/svg">
<mask id="mask0_19497_17273" style="mask-type:alpha" maskUnits="userSpaceOnUse" x="8" y="3" width="31" height="34">
<path d="M37.5605 18.0005C39.1465 18.8733 39.1465 21.1267 37.5605 21.9995L12.1953 35.9573C10.6506 36.8073 8.75 35.7043 8.75 33.9578L8.75 6.04217C8.75 4.29572 10.6506 3.19268 12.1953 4.04269L37.5605 18.0005Z" fill="#C4C4C4"/>
</mask>
<g mask="url(#mask0_19497_17273)">
<path d="M9.54341 35.683L25.3654 19.7721L9.80398 4.12329C9.18317 4.52127 8.75 5.20838 8.75 6.04213V33.9578C8.75 34.6691 9.06529 35.2737 9.54341 35.683Z" fill="url(#paint0_linear_19497_17273)"/>
<path d="M37.5605 18.0006C39.1465 18.8733 39.1465 21.1268 37.5605 21.9995L31.1614 25.5208L25.3654 19.7721L30.8658 14.3167L37.5605 18.0006Z" fill="url(#paint1_linear_19497_17273)"/>
<path d="M31.1613 25.5208L25.3654 19.7721L9.54333 35.683C10.2391 36.2788 11.2797 36.4611 12.1953 35.9573L31.1613 25.5208Z" fill="url(#paint2_linear_19497_17273)"/>
<path d="M9.80402 4.12331L25.3654 19.7721L30.8658 14.3166L12.1953 4.04269C11.3881 3.59848 10.4836 3.68766 9.80402 4.12331Z" fill="url(#paint3_linear_19497_17273)"/>
</g>
<defs>
<linearGradient id="paint0_linear_19497_17273" x1="19.5962" y1="13.5922" x2="8.83882" y2="24.438" gradientUnits="userSpaceOnUse">
<stop stop-color="#00C3FF"/>
<stop offset="1" stop-color="#1BE2FA"/>
</linearGradient>
<linearGradient id="paint1_linear_19497_17273" x1="25.3654" y1="19.7722" x2="39.6731" y2="19.7722" gradientUnits="userSpaceOnUse">
<stop stop-color="#FFCE00"/>
<stop offset="1" stop-color="#FFEA00"/>
</linearGradient>
<linearGradient id="paint2_linear_19497_17273" x1="9.21153" y1="37.6253" x2="28.2436" y2="22.3669" gradientUnits="userSpaceOnUse">
<stop stop-color="#DE2453"/>
<stop offset="1" stop-color="#FE3944"/>
</linearGradient>
<linearGradient id="paint3_linear_19497_17273" x1="10.1346" y1="2.37671" x2="28.2469" y2="17.1706" gradientUnits="userSpaceOnUse">
<stop stop-color="#11D574"/>
<stop offset="1" stop-color="#01F176"/>
</linearGradient>
</defs>
</svg>
