<svg width="160" height="48" viewBox="0 0 160 48" fill="none" xmlns="http://www.w3.org/2000/svg">
<rect x="1.1875" y="1" width="157.625" height="46" rx="4.5" fill="black"/>
<rect x="1.1875" y="1" width="157.625" height="46" rx="4.5" stroke="#A6A6A6"/>
<path d="M80.7476 26.0584C77.984 26.0584 75.7315 28.1605 75.7315 31.0557C75.7315 33.9333 77.984 36.053 80.7476 36.053C83.5123 36.053 85.7648 33.9333 85.7648 31.0557C85.7636 28.1605 83.5112 26.0584 80.7476 26.0584ZM80.7476 34.0861C79.233 34.0861 77.9276 32.837 77.9276 31.0569C77.9276 29.258 79.2342 28.0277 80.7476 28.0277C82.2621 28.0277 83.5676 29.258 83.5676 31.0569C83.5676 32.8359 82.2621 34.0861 80.7476 34.0861ZM69.8036 26.0584C67.04 26.0584 64.7875 28.1605 64.7875 31.0557C64.7875 33.9333 67.04 36.053 69.8036 36.053C72.5684 36.053 74.8209 33.9333 74.8209 31.0557C74.8209 28.1605 72.5684 26.0584 69.8036 26.0584ZM69.8036 34.0861C68.289 34.0861 66.9836 32.837 66.9836 31.0569C66.9836 29.258 68.2902 28.0277 69.8036 28.0277C71.3182 28.0277 72.6236 29.258 72.6236 31.0569C72.6248 32.8359 71.3182 34.0861 69.8036 34.0861ZM56.787 27.593V29.7127H61.8606C61.709 30.9053 61.3119 31.776 60.7056 32.3811C59.9677 33.119 58.8127 33.9333 56.787 33.9333C53.6638 33.9333 51.2222 31.4153 51.2222 28.2921C51.2222 25.169 53.6638 22.6509 56.787 22.6509C58.4719 22.6509 59.7021 23.3136 60.6104 24.1655L62.1062 22.6698C60.8372 21.4583 59.1534 20.5313 56.787 20.5313C52.5088 20.5313 48.9121 24.014 48.9121 28.2921C48.9121 32.5703 52.5088 36.053 56.787 36.053C59.0958 36.053 60.8384 35.2951 62.2002 33.8757C63.6008 32.4751 64.0367 30.5058 64.0367 28.916C64.0367 28.4249 63.9991 27.9702 63.9227 27.5918H56.787V27.593ZM110.024 29.2392C109.608 28.1229 108.339 26.0584 105.746 26.0584C103.171 26.0584 101.032 28.0842 101.032 31.0557C101.032 33.8569 103.152 36.053 105.991 36.053C108.281 36.053 109.607 34.6524 110.157 33.8381L108.453 32.7019C107.885 33.535 107.109 34.0837 105.991 34.0837C104.875 34.0837 104.08 33.5726 103.568 32.5691L110.251 29.8055L110.024 29.2392ZM103.209 30.9053C103.152 28.9736 104.705 27.9902 105.822 27.9902C106.693 27.9902 107.431 28.4261 107.677 29.05L103.209 30.9053ZM97.7768 35.751H99.9717V21.0624H97.7768V35.751ZM94.179 27.1759H94.1038C93.6115 26.5884 92.6644 26.0584 91.473 26.0584C88.9737 26.0584 86.6837 28.2545 86.6837 31.0757C86.6837 33.8769 88.9737 36.0542 91.473 36.0542C92.6656 36.0542 93.6115 35.5242 94.1038 34.9191H94.179V35.6382C94.179 37.5499 93.1567 38.5722 91.5106 38.5722C90.1664 38.5722 89.3333 37.6075 88.9925 36.7933L87.0808 37.5887C87.6295 38.9129 89.0865 40.5415 91.5106 40.5415C94.085 40.5415 96.2623 39.0269 96.2623 35.3351V26.3628H94.1802V27.1759H94.179ZM91.6621 34.0861C90.1476 34.0861 88.8797 32.817 88.8797 31.0757C88.8797 29.3144 90.1476 28.0277 91.6621 28.0277C93.1567 28.0277 94.3306 29.3144 94.3306 31.0757C94.3306 32.817 93.1567 34.0861 91.6621 34.0861ZM120.31 21.0624H115.056V35.751H117.248V30.1862H120.309C122.739 30.1862 125.128 28.4272 125.128 25.6249C125.128 22.8225 122.74 21.0624 120.31 21.0624ZM120.366 28.1417H117.248V23.1069H120.366C122.005 23.1069 122.936 24.464 122.936 25.6249C122.936 26.7623 122.005 28.1417 120.366 28.1417ZM133.916 26.0326C132.329 26.0326 130.685 26.7317 130.005 28.2816L131.951 29.0935C132.366 28.2815 133.142 28.016 133.954 28.016C135.088 28.016 136.24 28.6963 136.259 29.9054V30.057C135.862 29.8302 135.011 29.4906 133.973 29.4906C131.875 29.4906 129.739 30.6433 129.739 32.7971C129.739 34.7628 131.459 36.0283 133.386 36.0283C134.86 36.0283 135.673 35.3668 136.183 34.5913H136.258V35.7252H138.375V30.0934C138.377 27.4873 136.428 26.0326 133.916 26.0326ZM133.651 34.0825C132.934 34.0825 131.932 33.723 131.932 32.8347C131.932 31.7008 133.18 31.266 134.257 31.266C135.219 31.266 135.674 31.474 136.259 31.7572C136.089 33.119 134.917 34.0825 133.651 34.0825ZM146.086 26.3534L143.572 32.7219H143.497L140.889 26.3534H138.527L142.439 35.254L140.208 40.2054H142.495L148.524 26.3534H146.086ZM126.339 35.751H128.53V21.0624H126.339V35.751Z" fill="white"/>
<path d="M56.4039 12.5355C56.4039 13.5202 56.1125 14.3039 55.5285 14.889C54.8658 15.5846 54.001 15.9324 52.9388 15.9324C51.9213 15.9324 51.0553 15.5799 50.3444 14.8749C49.6324 14.1687 49.2764 13.2946 49.2764 12.2512C49.2764 11.2066 49.6324 10.3324 50.3444 9.62738C51.0553 8.9212 51.9213 8.5687 52.9388 8.5687C53.4441 8.5687 53.927 8.6674 54.3853 8.86363C54.8447 9.06103 55.2125 9.32305 55.4874 9.65088L54.8682 10.2713C54.4017 9.71315 53.759 9.43468 52.9377 9.43468C52.1951 9.43468 51.5535 9.69553 51.0118 10.2172C50.4702 10.7389 50.1999 11.4169 50.1999 12.25C50.1999 13.0831 50.4702 13.761 51.0118 14.2827C51.5535 14.8044 52.1951 15.0653 52.9377 15.0653C53.7249 15.0653 54.3817 14.8033 54.907 14.278C55.2477 13.9361 55.4451 13.4602 55.498 12.8504H52.9377V12.0032H56.3534C56.3886 12.1877 56.4039 12.3651 56.4039 12.5355Z" fill="white"/>
<path d="M61.8208 9.59102H58.6107V11.8259H61.5059V12.673H58.6107V14.9079H61.8208V15.775H57.7048V8.72504H61.8208V9.59102Z" fill="white"/>
<path d="M65.6406 15.775H64.7346V9.59102H62.7653V8.72504H67.6099V9.59102H65.6406V15.775Z" fill="white"/>
<path d="M71.1148 15.775V8.72504H72.0208V15.775H71.1148Z" fill="white"/>
<path d="M76.0383 15.775H75.1324V9.59102H73.1631V8.72504H78.0076V9.59102H76.0383V15.775Z" fill="white"/>
<path d="M87.1782 14.8644C86.485 15.5765 85.6237 15.9325 84.5932 15.9325C83.5627 15.9325 82.7014 15.5765 82.0094 14.8644C81.3161 14.1524 80.9707 13.2805 80.9707 12.25C80.9707 11.2196 81.3161 10.3477 82.0094 9.63566C82.7014 8.92361 83.5627 8.56641 84.5932 8.56641C85.6178 8.56641 86.4779 8.92478 87.1735 9.64036C87.8691 10.3559 88.2169 11.2254 88.2169 12.25C88.2169 13.2805 87.8703 14.1524 87.1782 14.8644ZM82.6779 14.2734C83.1996 14.8021 83.8377 15.0653 84.5932 15.0653C85.3487 15.0653 85.9879 14.801 86.5084 14.2734C87.0301 13.7446 87.2922 13.0702 87.2922 12.25C87.2922 11.4299 87.0301 10.7554 86.5084 10.2267C85.9879 9.69793 85.3487 9.43473 84.5932 9.43473C83.8377 9.43473 83.1996 9.69911 82.6779 10.2267C82.1574 10.7554 81.8954 11.4299 81.8954 12.25C81.8954 13.0702 82.1574 13.7446 82.6779 14.2734Z" fill="white"/>
<path d="M89.4883 15.775V8.72504H90.5904L94.0167 14.2088H94.0555L94.0167 12.8505V8.72504H94.9226V15.775H93.9768L90.3919 10.0246H90.3531L90.3919 11.3829V15.775H89.4883Z" fill="white"/>
<path d="M56.4039 12.5355C56.4039 13.5202 56.1125 14.3039 55.5285 14.889C54.8658 15.5846 54.001 15.9324 52.9388 15.9324C51.9213 15.9324 51.0553 15.5799 50.3444 14.8749C49.6324 14.1687 49.2764 13.2946 49.2764 12.2512C49.2764 11.2066 49.6324 10.3324 50.3444 9.62738C51.0553 8.9212 51.9213 8.5687 52.9388 8.5687C53.4441 8.5687 53.927 8.6674 54.3853 8.86363C54.8447 9.06103 55.2125 9.32305 55.4874 9.65088L54.8682 10.2713C54.4017 9.71315 53.759 9.43468 52.9377 9.43468C52.1951 9.43468 51.5535 9.69553 51.0118 10.2172C50.4702 10.7389 50.1999 11.4169 50.1999 12.25C50.1999 13.0831 50.4702 13.761 51.0118 14.2827C51.5535 14.8044 52.1951 15.0653 52.9377 15.0653C53.7249 15.0653 54.3817 14.8033 54.907 14.278C55.2477 13.9361 55.4451 13.4602 55.498 12.8504H52.9377V12.0032H56.3534C56.3886 12.1877 56.4039 12.3651 56.4039 12.5355Z" stroke="white" stroke-width="0.2" stroke-miterlimit="10"/>
<path d="M61.8208 9.59102H58.6107V11.8259H61.5059V12.673H58.6107V14.9079H61.8208V15.775H57.7048V8.72504H61.8208V9.59102Z" stroke="white" stroke-width="0.2" stroke-miterlimit="10"/>
<path d="M65.6406 15.775H64.7346V9.59102H62.7653V8.72504H67.6099V9.59102H65.6406V15.775Z" stroke="white" stroke-width="0.2" stroke-miterlimit="10"/>
<path d="M71.1148 15.775V8.72504H72.0208V15.775H71.1148Z" stroke="white" stroke-width="0.2" stroke-miterlimit="10"/>
<path d="M76.0383 15.775H75.1324V9.59102H73.1631V8.72504H78.0076V9.59102H76.0383V15.775Z" stroke="white" stroke-width="0.2" stroke-miterlimit="10"/>
<path d="M87.1782 14.8644C86.485 15.5765 85.6237 15.9325 84.5932 15.9325C83.5627 15.9325 82.7014 15.5765 82.0094 14.8644C81.3161 14.1524 80.9707 13.2805 80.9707 12.25C80.9707 11.2196 81.3161 10.3477 82.0094 9.63566C82.7014 8.92361 83.5627 8.56641 84.5932 8.56641C85.6178 8.56641 86.4779 8.92478 87.1735 9.64036C87.8691 10.3559 88.2169 11.2254 88.2169 12.25C88.2169 13.2805 87.8703 14.1524 87.1782 14.8644ZM82.6779 14.2734C83.1996 14.8021 83.8377 15.0653 84.5932 15.0653C85.3487 15.0653 85.9879 14.801 86.5084 14.2734C87.0301 13.7446 87.2922 13.0702 87.2922 12.25C87.2922 11.4299 87.0301 10.7554 86.5084 10.2267C85.9879 9.69793 85.3487 9.43473 84.5932 9.43473C83.8377 9.43473 83.1996 9.69911 82.6779 10.2267C82.1574 10.7554 81.8954 11.4299 81.8954 12.25C81.8954 13.0702 82.1574 13.7446 82.6779 14.2734Z" stroke="white" stroke-width="0.2" stroke-miterlimit="10"/>
<path d="M89.4883 15.775V8.72504H90.5904L94.0167 14.2088H94.0555L94.0167 12.8505V8.72504H94.9226V15.775H93.9768L90.3919 10.0246H90.3531L90.3919 11.3829V15.775H89.4883Z" stroke="white" stroke-width="0.2" stroke-miterlimit="10"/>
<g filter="url(#filter0_ii_19187_24781)">
<path d="M12.9503 9.35726C12.6084 9.71916 12.4062 10.2808 12.4062 11.0081V36.9944C12.4062 37.7229 12.6084 38.2834 12.9503 38.6453L13.0372 38.7299L27.5943 24.1728V24.0013V23.8297L13.0372 9.27148L12.9503 9.35726Z" fill="url(#paint0_linear_19187_24781)"/>
<path d="M32.4463 29.0263L27.5947 24.1724V24.0009V23.8293L32.4475 18.9766L32.5568 19.0388L38.306 22.3053C39.9475 23.2383 39.9475 24.7646 38.306 25.6987L32.5568 28.9652L32.4463 29.0263Z" fill="url(#paint1_linear_19187_24781)"/>
<g filter="url(#filter1_i_19187_24781)">
<path d="M32.5562 28.9652L27.593 24.002L12.9502 38.646C13.4907 39.2194 14.3849 39.2899 15.3918 38.7188L32.5562 28.9652Z" fill="url(#paint2_linear_19187_24781)"/>
</g>
<path d="M32.5562 19.038L15.3918 9.28551C14.3849 8.71329 13.4907 8.78496 12.9502 9.35836L27.5942 24.0024L32.5562 19.038Z" fill="url(#paint3_linear_19187_24781)"/>
</g>
<defs>
<filter id="filter0_ii_19187_24781" x="12.4062" y="8.89062" width="27.1309" height="30.2227" filterUnits="userSpaceOnUse" color-interpolation-filters="sRGB">
<feFlood flood-opacity="0" result="BackgroundImageFix"/>
<feBlend mode="normal" in="SourceGraphic" in2="BackgroundImageFix" result="shape"/>
<feColorMatrix in="SourceAlpha" type="matrix" values="0 0 0 0 0 0 0 0 0 0 0 0 0 0 0 0 0 0 127 0" result="hardAlpha"/>
<feOffset dy="-0.15"/>
<feComposite in2="hardAlpha" operator="arithmetic" k2="-1" k3="1"/>
<feColorMatrix type="matrix" values="0 0 0 0 0 0 0 0 0 0 0 0 0 0 0 0 0 0 0.12 0"/>
<feBlend mode="normal" in2="shape" result="effect1_innerShadow_19187_24781"/>
<feColorMatrix in="SourceAlpha" type="matrix" values="0 0 0 0 0 0 0 0 0 0 0 0 0 0 0 0 0 0 127 0" result="hardAlpha"/>
<feOffset dy="0.15"/>
<feComposite in2="hardAlpha" operator="arithmetic" k2="-1" k3="1"/>
<feColorMatrix type="matrix" values="0 0 0 0 1 0 0 0 0 1 0 0 0 0 1 0 0 0 0.25 0"/>
<feBlend mode="normal" in2="effect1_innerShadow_19187_24781" result="effect2_innerShadow_19187_24781"/>
</filter>
<filter id="filter1_i_19187_24781" x="12.9502" y="24.002" width="19.6064" height="15.1113" filterUnits="userSpaceOnUse" color-interpolation-filters="sRGB">
<feFlood flood-opacity="0" result="BackgroundImageFix"/>
<feBlend mode="normal" in="SourceGraphic" in2="BackgroundImageFix" result="shape"/>
<feColorMatrix in="SourceAlpha" type="matrix" values="0 0 0 0 0 0 0 0 0 0 0 0 0 0 0 0 0 0 127 0" result="hardAlpha"/>
<feOffset dy="-0.15"/>
<feComposite in2="hardAlpha" operator="arithmetic" k2="-1" k3="1"/>
<feColorMatrix type="matrix" values="0 0 0 0 0 0 0 0 0 0 0 0 0 0 0 0 0 0 0.08 0"/>
<feBlend mode="normal" in2="shape" result="effect1_innerShadow_19187_24781"/>
</filter>
<linearGradient id="paint0_linear_19187_24781" x1="26.3039" y1="10.7332" x2="6.58507" y2="30.452" gradientUnits="userSpaceOnUse">
<stop stop-color="#00A0FF"/>
<stop offset="0.0066" stop-color="#00A1FF"/>
<stop offset="0.2601" stop-color="#00BEFF"/>
<stop offset="0.5122" stop-color="#00D2FF"/>
<stop offset="0.7604" stop-color="#00DFFF"/>
<stop offset="1" stop-color="#00E3FF"/>
</linearGradient>
<linearGradient id="paint1_linear_19187_24781" x1="40.4428" y1="24.0009" x2="12.0126" y2="24.0009" gradientUnits="userSpaceOnUse">
<stop stop-color="#FFE000"/>
<stop offset="0.4087" stop-color="#FFBD00"/>
<stop offset="0.7754" stop-color="#FFA500"/>
<stop offset="1" stop-color="#FF9C00"/>
</linearGradient>
<linearGradient id="paint2_linear_19187_24781" x1="29.8609" y1="26.6973" x2="3.11968" y2="53.4385" gradientUnits="userSpaceOnUse">
<stop stop-color="#FF3A44"/>
<stop offset="1" stop-color="#C31162"/>
</linearGradient>
<linearGradient id="paint3_linear_19187_24781" x1="9.26234" y1="0.707778" x2="21.203" y2="12.6485" gradientUnits="userSpaceOnUse">
<stop stop-color="#32A071"/>
<stop offset="0.0685" stop-color="#2DA771"/>
<stop offset="0.4762" stop-color="#15CF74"/>
<stop offset="0.8009" stop-color="#06E775"/>
<stop offset="1" stop-color="#00F076"/>
</linearGradient>
</defs>
</svg>
