<svg width="44" height="45" viewBox="0 0 44 45" fill="none" xmlns="http://www.w3.org/2000/svg">
    <g filter="url(#filter0_d_18995_12191)">
        <path d="M2.5 9.87305C2.5 5.73091 5.85786 2.37305 10 2.37305H34C38.1421 2.37305 41.5 5.73091 41.5 9.87305V33.873C41.5 38.0152 38.1421 41.373 34 41.373H10C5.85786 41.373 2.5 38.0152 2.5 33.873V9.87305Z" stroke="#EAECF0" shape-rendering="crispEdges"/>
        <path d="M30.9166 23.123L29.2505 21.4564L27.5833 23.123M29.5 21.873C29.5 26.0152 26.1421 29.373 22 29.373C17.8579 29.373 14.5 26.0152 14.5 21.873C14.5 17.7309 17.8579 14.373 22 14.373C24.7516 14.373 27.1571 15.8548 28.4621 18.064M22 17.7064V21.873L24.5 23.5397" stroke="#344054" stroke-width="1.66667" stroke-linecap="round" stroke-linejoin="round"/>
    </g>
    <defs>
        <filter id="filter0_d_18995_12191" x="0" y="0.873047" width="44" height="44" filterUnits="userSpaceOnUse" color-interpolation-filters="sRGB">
            <feFlood flood-opacity="0" result="BackgroundImageFix"/>
            <feColorMatrix in="SourceAlpha" type="matrix" values="0 0 0 0 0 0 0 0 0 0 0 0 0 0 0 0 0 0 127 0" result="hardAlpha"/>
            <feOffset dy="1"/>
            <feGaussianBlur stdDeviation="1"/>
            <feComposite in2="hardAlpha" operator="out"/>
            <feColorMatrix type="matrix" values="0 0 0 0 0.0627451 0 0 0 0 0.0941176 0 0 0 0 0.156863 0 0 0 0.05 0"/>
            <feBlend mode="normal" in2="BackgroundImageFix" result="effect1_dropShadow_18995_12191"/>
            <feBlend mode="normal" in="SourceGraphic" in2="effect1_dropShadow_18995_12191" result="shape"/>
        </filter>
    </defs>
</svg>
