<svg width="44" height="45" viewBox="0 0 44 45" fill="none" xmlns="http://www.w3.org/2000/svg">
    <g filter="url(#filter0_d_18995_12182)">
        <path d="M2.5 9.87305C2.5 5.73091 5.85786 2.37305 10 2.37305H34C38.1421 2.37305 41.5 5.73091 41.5 9.87305V33.873C41.5 38.0152 38.1421 41.373 34 41.373H10C5.85786 41.373 2.5 38.0152 2.5 33.873V9.87305Z" stroke="#EAECF0" shape-rendering="crispEdges"/>
        <path d="M24.5421 19.373H16.5833C15.4327 19.373 14.5 18.4403 14.5 17.2897C14.5 16.1391 15.4327 15.2064 16.5833 15.2064H24.5421M19.4579 28.5397H27.4167C28.5673 28.5397 29.5 27.607 29.5 26.4564C29.5 25.3058 28.5673 24.373 27.4167 24.373H19.4579M14.5 26.4564C14.5 28.0672 15.8058 29.373 17.4167 29.373C19.0275 29.373 20.3333 28.0672 20.3333 26.4564C20.3333 24.8455 19.0275 23.5397 17.4167 23.5397C15.8058 23.5397 14.5 24.8455 14.5 26.4564ZM29.5 17.2897C29.5 18.9005 28.1942 20.2064 26.5833 20.2064C24.9725 20.2064 23.6667 18.9005 23.6667 17.2897C23.6667 15.6789 24.9725 14.373 26.5833 14.373C28.1942 14.373 29.5 15.6789 29.5 17.2897Z" stroke="#344054" stroke-width="1.66667" stroke-linecap="round" stroke-linejoin="round"/>
    </g>
    <defs>
        <filter id="filter0_d_18995_12182" x="0" y="0.873047" width="44" height="44" filterUnits="userSpaceOnUse" color-interpolation-filters="sRGB">
            <feFlood flood-opacity="0" result="BackgroundImageFix"/>
            <feColorMatrix in="SourceAlpha" type="matrix" values="0 0 0 0 0 0 0 0 0 0 0 0 0 0 0 0 0 0 127 0" result="hardAlpha"/>
            <feOffset dy="1"/>
            <feGaussianBlur stdDeviation="1"/>
            <feComposite in2="hardAlpha" operator="out"/>
            <feColorMatrix type="matrix" values="0 0 0 0 0.0627451 0 0 0 0 0.0941176 0 0 0 0 0.156863 0 0 0 0.05 0"/>
            <feBlend mode="normal" in2="BackgroundImageFix" result="effect1_dropShadow_18995_12182"/>
            <feBlend mode="normal" in="SourceGraphic" in2="effect1_dropShadow_18995_12182" result="shape"/>
        </filter>
    </defs>
</svg>
