<svg width="44" height="45" viewBox="0 0 44 45" fill="none" xmlns="http://www.w3.org/2000/svg">
    <g filter="url(#filter0_d_18995_12200)">
        <path d="M2.5 9.87305C2.5 5.73091 5.85786 2.37305 10 2.37305H34C38.1421 2.37305 41.5 5.73091 41.5 9.87305V33.873C41.5 38.0152 38.1421 41.373 34 41.373H10C5.85786 41.373 2.5 38.0152 2.5 33.873V9.87305Z" stroke="#EAECF0" shape-rendering="crispEdges"/>
        <path d="M30.3337 29.373V27.7064C30.3337 26.1532 29.2713 24.8481 27.8337 24.4781M24.917 14.6153C26.1386 15.1098 27.0003 16.3075 27.0003 17.7064C27.0003 19.1053 26.1386 20.3029 24.917 20.7974M26.167 29.373C26.167 27.8199 26.167 27.0433 25.9133 26.4308C25.5749 25.614 24.926 24.9651 24.1093 24.6268C23.4967 24.373 22.7201 24.373 21.167 24.373H18.667C17.1139 24.373 16.3373 24.373 15.7247 24.6268C14.908 24.9651 14.259 25.614 13.9207 26.4308C13.667 27.0433 13.667 27.8199 13.667 29.373M23.2503 17.7064C23.2503 19.5473 21.7579 21.0397 19.917 21.0397C18.076 21.0397 16.5837 19.5473 16.5837 17.7064C16.5837 15.8654 18.076 14.373 19.917 14.373C21.7579 14.373 23.2503 15.8654 23.2503 17.7064Z" stroke="#344054" stroke-width="1.66667" stroke-linecap="round" stroke-linejoin="round"/>
    </g>
    <defs>
        <filter id="filter0_d_18995_12200" x="0" y="0.873047" width="44" height="44" filterUnits="userSpaceOnUse" color-interpolation-filters="sRGB">
            <feFlood flood-opacity="0" result="BackgroundImageFix"/>
            <feColorMatrix in="SourceAlpha" type="matrix" values="0 0 0 0 0 0 0 0 0 0 0 0 0 0 0 0 0 0 127 0" result="hardAlpha"/>
            <feOffset dy="1"/>
            <feGaussianBlur stdDeviation="1"/>
            <feComposite in2="hardAlpha" operator="out"/>
            <feColorMatrix type="matrix" values="0 0 0 0 0.0627451 0 0 0 0 0.0941176 0 0 0 0 0.156863 0 0 0 0.05 0"/>
            <feBlend mode="normal" in2="BackgroundImageFix" result="effect1_dropShadow_18995_12200"/>
            <feBlend mode="normal" in="SourceGraphic" in2="effect1_dropShadow_18995_12200" result="shape"/>
        </filter>
    </defs>
</svg>
