<svg width="286" height="88" viewBox="0 0 286 88" fill="none" xmlns="http://www.w3.org/2000/svg">
<path d="M50.742 79.5167C49.4694 79.1003 48.2145 78.6372 46.9835 78.1263C47.5891 77.1649 47.8842 75.3663 47.7396 74.3274C47.4165 72.0027 44.8311 69.4808 43.9275 68.7251C43.5668 69.8281 42.7267 73.2892 43.7072 75.4341C43.9638 75.9942 44.4882 76.6991 45.0861 77.2906C43.4966 76.5476 41.954 75.7167 40.4728 74.7914C41.2944 74.0113 42.0523 72.5098 42.2243 71.5357C42.632 69.2303 40.9389 66.0621 40.3086 65.0746C39.6233 66.0146 37.7534 69.0519 38.0297 71.3823C38.1084 72.046 38.4384 72.9684 38.8827 73.7553L37.8442 73.0406L36.699 72.1705C36.51 72.0227 36.314 71.8857 36.131 71.7304L35.581 71.2683C35.2195 70.9543 34.8365 70.666 34.4878 70.339L33.7804 69.6913C34.7474 69.0878 35.7995 67.7257 36.1569 66.787C36.9904 64.5991 35.9157 61.1836 35.4806 60.0999C34.6297 60.8979 32.2201 63.5391 32.056 65.8755C32.0076 66.5577 32.1694 67.5545 32.4736 68.4232C32.4535 68.4029 32.4327 68.3825 32.4124 68.3628L31.9084 67.8553C31.7427 67.6835 31.5876 67.502 31.4268 67.3269C31.1073 66.9734 30.7805 66.6254 30.4667 66.2677L29.5553 65.1677C29.401 64.9881 29.254 64.8025 29.1107 64.6145C29.991 64.1323 30.9688 63.0976 31.3553 62.3414C32.3042 60.485 31.6813 57.3659 31.3996 56.3673C30.5698 56.9932 28.1815 59.1033 27.8108 61.1535C27.7274 61.6167 27.7363 62.2589 27.8312 62.8949L27.016 61.7248L26.2526 60.5218C26.1281 60.3199 25.9934 60.1233 25.8766 59.9166L25.5259 59.2971L25.4172 59.1057C26.362 58.7282 27.5032 57.7025 27.967 56.9379C29.0498 55.155 28.6572 52.0017 28.4492 50.9863C27.5747 51.5511 25.0365 53.4844 24.5163 55.502C24.4002 55.9525 24.3619 56.582 24.4073 57.2139L24.1869 56.7836C23.9721 56.3604 23.7899 55.922 23.5899 55.4914L23.2959 54.8431L23.0323 54.183C22.9518 53.9752 22.8686 53.769 22.7861 53.5623C23.6974 53.349 24.8716 52.5908 25.4028 51.97C26.6522 50.5099 26.7639 47.5957 26.7258 46.6458C25.8468 47.0318 23.252 48.4187 22.4796 50.1722C22.3063 50.565 22.1777 51.1338 22.1254 51.7156C21.7332 50.5108 21.3968 49.2885 21.1089 48.0546C22.0329 48.0155 23.25 47.5858 23.8807 47.1385C25.4542 46.0217 26.2779 43.2275 26.4746 42.2982C25.5251 42.4631 22.6606 43.1887 21.4789 44.7023C21.2052 45.0529 20.9315 45.5965 20.7359 46.1679L20.7044 45.9926C20.6647 45.7586 20.6144 45.5269 20.5836 45.2925L20.4924 44.5883C20.4374 44.1182 20.3569 43.65 20.3228 43.1781L20.2536 42.3113C21.1335 42.4911 22.5485 42.2241 23.2776 41.8437C24.9063 40.9943 26.0494 38.4718 26.3564 37.6235C25.4401 37.6579 22.6463 37.9764 21.3336 39.2492C20.9109 39.6586 20.4402 40.4185 20.1761 41.1395C20.1756 41.1108 20.1747 41.0814 20.1743 41.0527L20.1539 40.3429C20.1399 39.8696 20.1196 39.3958 20.14 38.9225L20.1709 37.5021L20.2328 36.6305C21.0908 36.8941 22.5228 36.7699 23.2862 36.4655C24.9957 35.7834 26.3929 33.3896 26.7851 32.5772C25.8689 32.5202 23.0541 32.5589 21.6168 33.6933C21.1807 34.0374 20.6699 34.6866 20.3302 35.3376L20.4135 34.6727C20.4752 34.2037 20.5237 33.7317 20.5956 33.2637C20.7305 32.5367 20.8418 31.8039 20.9968 31.08C21.837 31.3948 23.2673 31.3639 24.0473 31.1107C25.8003 30.5419 27.3567 28.2467 27.8036 27.4628C26.893 27.3456 24.0798 27.2002 22.5678 28.2374C22.1815 28.5024 21.7278 28.9795 21.3654 29.4981C21.6908 28.1881 22.0949 26.8974 22.5594 25.6286C23.217 26.123 24.5095 26.4585 25.2738 26.4291C26.9723 26.3632 28.9402 24.7278 29.5374 24.1469C28.7605 23.8176 26.3058 22.9902 24.7005 23.5289C24.161 23.7094 23.4247 24.1839 22.9102 24.7012C23.3741 23.5128 23.8851 22.3399 24.4588 21.1975C25.0711 21.746 26.3675 22.1779 27.1445 22.1987C28.8446 22.2441 30.9195 20.7414 31.5546 20.2015C30.8009 19.8224 28.4066 18.837 26.7676 19.269C26.2261 19.4118 25.4746 19.8256 24.9285 20.298C25.0079 20.1513 25.0879 20.0048 25.1699 19.8594C25.7717 18.7776 26.4228 17.7222 27.1199 16.6968C27.5498 17.2964 28.5445 17.9314 29.1997 18.1178C30.6758 18.5391 32.8378 17.6971 33.5182 17.3705C32.9472 16.8719 31.0815 15.4768 29.5491 15.4849C29.0078 15.4878 28.1868 15.7054 27.5862 16.0272C27.8145 15.7051 28.0476 15.3865 28.2851 15.0714C28.8147 14.3696 29.3685 13.6857 29.9453 13.0205C30.3225 13.6517 31.4032 14.3566 32.0994 14.5551C33.5755 14.9763 35.7374 14.1344 36.418 13.8072C35.847 13.3086 33.9813 11.9136 32.4484 11.9215C31.878 11.9246 30.9956 12.1669 30.3884 12.5177C30.9474 11.8952 31.5263 11.2894 32.1237 10.7012C33.0027 10.7585 34.3822 10.257 35.0461 9.75739C36.4949 8.66722 37.2143 6.03236 37.3813 5.15914C36.498 5.34176 33.8378 6.10673 32.7615 7.55663C32.2473 8.24886 31.7481 9.70599 31.8784 10.5595C31.3826 11.0264 30.8987 11.5057 30.4269 11.9962C30.6898 11.3886 30.8594 10.6926 30.8672 10.1989C30.8957 8.44879 29.2967 6.2952 28.7235 5.63549C28.3352 6.40716 27.3295 8.86192 27.8012 10.5541C28.0176 11.3295 28.7833 12.5258 29.495 12.9987C28.9634 13.5909 28.4501 14.1994 27.9554 14.8231C27.7426 15.0917 27.5332 15.3629 27.3277 15.6369C27.5159 14.8282 27.5251 13.8298 27.3688 13.2036C26.9053 11.3462 24.595 9.5196 23.7986 8.98288C23.602 9.90759 23.223 12.7833 24.2025 14.439C24.6466 15.1898 25.7813 16.2251 26.6686 16.5376C25.965 17.5264 25.3042 18.5461 24.6887 19.5928C24.6206 19.7077 24.5532 19.8227 24.4866 19.9385C24.5125 19.0429 24.3108 17.9869 24.0139 17.3555C23.1292 15.4762 20.2946 14.0083 19.3372 13.601C19.3249 14.6242 19.5325 17.7599 20.9213 19.3191C21.5313 20.0046 22.8858 20.8405 23.8845 21.0282C23.3104 22.1134 22.7924 23.2279 22.3169 24.36C22.2018 23.4518 21.813 22.3971 21.4002 21.8055C20.2094 20.0954 17.1694 19.114 16.1571 18.8702C16.3194 19.8825 17.0583 22.9441 18.6905 24.2549C19.4025 24.8267 20.8627 25.4247 21.8769 25.4526C21.3962 26.7039 20.9726 27.9785 20.6249 29.274C20.3741 28.5162 19.9623 27.7472 19.5697 27.2947C18.2005 25.7191 15.0737 25.0635 14.0419 24.9275C14.3136 25.9177 15.3816 28.887 17.1461 30.019C17.8615 30.4781 19.2195 30.8905 20.2193 30.8831C20.0461 31.625 19.9173 32.377 19.7652 33.1252C19.683 33.6012 19.6247 34.0815 19.553 34.5598L19.4648 35.1777C19.0656 34.3658 18.4499 33.5456 17.9217 33.1065C16.1994 31.6739 12.7857 31.5155 11.6738 31.5483C12.1352 32.5494 13.7857 35.5073 15.8464 36.4023C16.701 36.7741 18.2577 36.9792 19.3124 36.778L19.2527 37.4458L19.1949 38.8972C19.1653 39.3811 19.1774 39.8659 19.1826 40.35L19.1907 41.0777C19.1908 41.1228 19.1913 41.1687 19.1915 41.2138C18.6962 40.3871 17.9089 39.5449 17.2794 39.1386C15.3948 37.9207 11.9912 38.1723 10.8925 38.3378C11.4734 39.2772 13.4756 42.0192 15.6289 42.6624C16.5668 42.9423 18.2496 42.9482 19.2612 42.5692L19.3033 43.2568C19.3304 43.7417 19.4036 44.2222 19.4516 44.7052L19.5322 45.4295C19.5601 45.6706 19.6072 45.9094 19.6434 46.1499L19.7592 46.8555C19.079 46.0438 18.085 45.265 17.3358 44.93C15.0824 43.9224 11.4369 44.7661 10.2752 45.13C11.0673 46.0541 13.7117 48.6991 16.1574 49.0368C17.2083 49.1819 18.9984 48.9155 20.0362 48.3493C20.3264 49.7112 20.6755 51.062 21.0911 52.3947C20.3478 51.7357 19.3906 51.1582 18.677 50.927C16.3281 50.1651 12.8005 51.394 11.6869 51.8805C12.575 52.7154 15.4931 55.0642 17.9591 55.1394C18.9945 55.1707 20.6878 54.7355 21.6675 54.0869C22.1615 55.4331 22.707 56.7629 23.3333 58.0584C22.5189 57.5454 21.5395 57.1419 20.8298 57.022C18.3954 56.6096 15.0968 58.3409 14.07 58.9854C15.073 59.6826 18.3089 61.5836 20.7552 61.2982C21.7653 61.1805 23.3356 60.5228 24.2153 59.7542L24.3209 59.9465L24.6759 60.5911C24.794 60.8061 24.9292 61.0114 25.0556 61.2218L25.829 62.4761L26.6619 63.6933C26.7517 63.8184 26.8423 63.9427 26.9335 64.0671C25.961 63.5295 24.7205 63.1388 23.872 63.0834C21.26 62.9124 17.9775 65.0982 16.9676 65.8901C18.1029 66.517 21.7254 68.1737 24.2721 67.6068C25.4074 67.3546 27.1604 66.3666 27.9321 65.3846C28.7134 66.3771 29.539 67.3369 30.4248 68.2415C30.7891 68.6213 31.1612 68.9935 31.5405 69.3585C30.4461 69.0652 29.0991 68.9939 28.2441 69.1601C25.6822 69.6578 23.0915 72.6081 22.3256 73.6316C23.5841 73.9506 27.5096 74.6351 29.8151 73.4398C30.8157 72.9213 32.1983 71.5786 32.7192 70.4489C34.4136 71.9534 36.2358 73.3151 38.1567 74.5147C37.0255 74.2744 35.7456 74.2303 34.8987 74.3946C32.0359 74.9511 29.1405 78.2482 28.2843 79.3915C29.691 79.7484 34.0779 80.5131 36.6549 79.1775C37.8441 78.561 39.5152 76.9037 39.9992 75.599C41.615 76.4936 43.2894 77.2775 45.0076 77.9396C43.7708 77.8521 42.3374 78.0381 41.4587 78.3796C38.7478 79.4332 36.5055 83.1938 35.8735 84.4714C37.3196 84.5744 41.7679 84.5541 44.0551 82.7821C45.1409 81.9414 46.527 79.9256 46.7051 78.5487C48.0195 78.9871 49.3556 79.3554 50.7066 79.6488C50.7402 79.6556 50.7756 79.6365 50.7862 79.6033C50.7974 79.5681 50.7773 79.5301 50.7416 79.5183L50.742 79.5167Z" fill="#207B63"/>
<path d="M54.6506 36.1193V33.2131L61.9375 21.733H64.4432V25.7557H62.9602L58.3665 33.0256V33.1619H68.7216V36.1193H54.6506ZM63.0284 39.1875V35.233L63.0966 33.946V21.733H66.5568V39.1875H63.0284ZM73.0085 39.4091C72.446 39.4091 71.9631 39.2102 71.5597 38.8125C71.1619 38.4091 70.9631 37.9261 70.9631 37.3636C70.9631 36.8068 71.1619 36.3295 71.5597 35.9318C71.9631 35.5341 72.446 35.3352 73.0085 35.3352C73.554 35.3352 74.0313 35.5341 74.4403 35.9318C74.8494 36.3295 75.054 36.8068 75.054 37.3636C75.054 37.7386 74.9574 38.0824 74.7642 38.3949C74.5767 38.7017 74.3295 38.9489 74.0227 39.1364C73.7159 39.3182 73.3778 39.4091 73.0085 39.4091ZM78.0348 39.1875L85.2706 24.8693V24.75H76.8416V21.733H89.0888V24.7926L81.8445 39.1875H78.0348ZM108.056 21.733H111.746V33.0682C111.746 34.3409 111.442 35.4545 110.835 36.4091C110.232 37.3636 109.388 38.108 108.303 38.642C107.218 39.1705 105.954 39.4347 104.511 39.4347C103.062 39.4347 101.795 39.1705 100.71 38.642C99.6243 38.108 98.7805 37.3636 98.1783 36.4091C97.576 35.4545 97.2749 34.3409 97.2749 33.0682V21.733H100.965V32.7528C100.965 33.4176 101.11 34.0085 101.4 34.5256C101.695 35.0426 102.11 35.4489 102.644 35.7443C103.178 36.0398 103.8 36.1875 104.511 36.1875C105.227 36.1875 105.849 36.0398 106.377 35.7443C106.911 35.4489 107.323 35.0426 107.613 34.5256C107.908 34.0085 108.056 33.4176 108.056 32.7528V21.733ZM125.607 29.8295L122.283 30.0341C122.226 29.75 122.104 29.4943 121.916 29.267C121.729 29.0341 121.482 28.8494 121.175 28.7131C120.874 28.571 120.513 28.5 120.092 28.5C119.53 28.5 119.055 28.6193 118.669 28.858C118.283 29.0909 118.089 29.4034 118.089 29.7955C118.089 30.108 118.214 30.3722 118.464 30.5881C118.714 30.804 119.143 30.9773 119.751 31.108L122.121 31.5852C123.393 31.8466 124.342 32.267 124.967 32.8466C125.592 33.4261 125.905 34.1875 125.905 35.1307C125.905 35.9886 125.652 36.7415 125.146 37.3892C124.646 38.0369 123.959 38.5426 123.084 38.9062C122.214 39.2642 121.212 39.4432 120.075 39.4432C118.342 39.4432 116.962 39.0824 115.933 38.3608C114.911 37.6335 114.311 36.6449 114.135 35.3949L117.706 35.2074C117.814 35.7358 118.075 36.1392 118.49 36.4176C118.905 36.6903 119.436 36.8267 120.084 36.8267C120.72 36.8267 121.232 36.7045 121.618 36.4602C122.01 36.2102 122.209 35.8892 122.214 35.4972C122.209 35.1676 122.07 34.8977 121.797 34.6875C121.524 34.4716 121.104 34.3068 120.536 34.1932L118.268 33.7415C116.99 33.4858 116.038 33.0426 115.413 32.4119C114.794 31.7812 114.484 30.9773 114.484 30C114.484 29.1591 114.712 28.4347 115.166 27.8267C115.626 27.2188 116.271 26.75 117.101 26.4205C117.936 26.0909 118.913 25.9261 120.033 25.9261C121.686 25.9261 122.987 26.2756 123.936 26.9744C124.891 27.6733 125.447 28.625 125.607 29.8295ZM134.157 39.4432C132.81 39.4432 131.651 39.1705 130.68 38.625C129.714 38.0739 128.969 37.2955 128.447 36.2898C127.924 35.2784 127.663 34.0824 127.663 32.7017C127.663 31.3551 127.924 30.1733 128.447 29.1562C128.969 28.1392 129.705 27.3466 130.654 26.7784C131.609 26.2102 132.728 25.9261 134.012 25.9261C134.876 25.9261 135.68 26.0653 136.424 26.3438C137.174 26.6165 137.827 27.0284 138.384 27.5795C138.947 28.1307 139.384 28.8239 139.697 29.6591C140.009 30.4886 140.165 31.4602 140.165 32.5739V33.571H129.112V31.321H136.748C136.748 30.7983 136.634 30.3352 136.407 29.9318C136.18 29.5284 135.864 29.2131 135.461 28.9858C135.063 28.7528 134.6 28.6364 134.072 28.6364C133.521 28.6364 133.032 28.7642 132.606 29.0199C132.185 29.2699 131.856 29.608 131.617 30.0341C131.379 30.4545 131.256 30.9233 131.251 31.4403V33.5795C131.251 34.2273 131.37 34.7869 131.609 35.2585C131.853 35.7301 132.197 36.0938 132.64 36.3494C133.083 36.6051 133.609 36.733 134.217 36.733C134.62 36.733 134.989 36.6761 135.325 36.5625C135.66 36.4489 135.947 36.2784 136.185 36.0511C136.424 35.8239 136.606 35.5455 136.731 35.2159L140.089 35.4375C139.918 36.2443 139.569 36.9489 139.04 37.5511C138.518 38.1477 137.842 38.6136 137.012 38.9489C136.188 39.2784 135.237 39.4432 134.157 39.4432ZM142.535 39.1875V26.0966H146.055V28.3807H146.191C146.43 27.5682 146.83 26.9545 147.393 26.5398C147.955 26.1193 148.603 25.9091 149.336 25.9091C149.518 25.9091 149.714 25.9205 149.924 25.9432C150.134 25.9659 150.319 25.9972 150.478 26.0369V29.2585C150.308 29.2074 150.072 29.1619 149.771 29.1222C149.469 29.0824 149.194 29.0625 148.944 29.0625C148.41 29.0625 147.933 29.179 147.512 29.4119C147.097 29.6392 146.768 29.9574 146.523 30.3665C146.285 30.7756 146.165 31.2472 146.165 31.7812V39.1875H142.535ZM157.978 39.1875V21.733H164.864C166.183 21.733 167.308 21.9687 168.239 22.4403C169.177 22.9062 169.89 23.5682 170.379 24.4261C170.873 25.2784 171.12 26.2812 171.12 27.4347C171.12 28.5937 170.87 29.5909 170.37 30.4261C169.87 31.2557 169.146 31.892 168.197 32.3352C167.254 32.7784 166.112 33 164.771 33H160.16V30.0341H164.174C164.879 30.0341 165.464 29.9375 165.93 29.7443C166.396 29.5511 166.742 29.2614 166.969 28.875C167.202 28.4886 167.319 28.0085 167.319 27.4347C167.319 26.8551 167.202 26.3665 166.969 25.9688C166.742 25.571 166.393 25.2699 165.921 25.0653C165.455 24.8551 164.867 24.75 164.157 24.75H161.668V39.1875H157.978ZM167.404 31.2443L171.742 39.1875H167.668L163.424 31.2443H167.404ZM177.393 39.4347C176.558 39.4347 175.813 39.2898 175.16 39C174.506 38.7045 173.989 38.2699 173.609 37.696C173.234 37.1165 173.046 36.3949 173.046 35.5312C173.046 34.804 173.18 34.1932 173.447 33.6989C173.714 33.2045 174.077 32.8068 174.538 32.5057C174.998 32.2045 175.521 31.9773 176.106 31.8239C176.697 31.6705 177.316 31.5625 177.964 31.5C178.725 31.4205 179.339 31.3466 179.805 31.2784C180.271 31.2045 180.609 31.0966 180.819 30.9545C181.029 30.8125 181.134 30.6023 181.134 30.3239V30.2727C181.134 29.733 180.964 29.3153 180.623 29.0199C180.288 28.7244 179.81 28.5767 179.191 28.5767C178.538 28.5767 178.018 28.7216 177.631 29.0114C177.245 29.2955 176.989 29.6534 176.864 30.0852L173.506 29.8125C173.677 29.017 174.012 28.3295 174.512 27.75C175.012 27.1648 175.657 26.7159 176.447 26.4034C177.242 26.0852 178.163 25.9261 179.208 25.9261C179.935 25.9261 180.631 26.0114 181.296 26.1818C181.967 26.3523 182.56 26.6165 183.077 26.9744C183.6 27.3324 184.012 27.7926 184.313 28.3551C184.614 28.9119 184.765 29.5795 184.765 30.358V39.1875H181.322V37.3722H181.219C181.009 37.7812 180.728 38.142 180.376 38.4545C180.023 38.7614 179.6 39.0028 179.106 39.179C178.612 39.3494 178.04 39.4347 177.393 39.4347ZM178.433 36.929C178.967 36.929 179.438 36.8239 179.847 36.6136C180.256 36.3977 180.577 36.108 180.81 35.7443C181.043 35.3807 181.16 34.9687 181.16 34.5085V33.1193C181.046 33.1932 180.89 33.2614 180.691 33.3239C180.498 33.3807 180.279 33.4347 180.035 33.4858C179.79 33.5312 179.546 33.5739 179.302 33.6136C179.058 33.6477 178.836 33.679 178.637 33.7074C178.211 33.7699 177.839 33.8693 177.521 34.0057C177.202 34.142 176.955 34.3267 176.779 34.5597C176.603 34.7869 176.515 35.071 176.515 35.4119C176.515 35.9062 176.694 36.2841 177.052 36.5455C177.415 36.8011 177.876 36.929 178.433 36.929ZM194.545 26.0966V28.8239H186.661V26.0966H194.545ZM188.451 22.9602H192.082V35.1648C192.082 35.5 192.133 35.7614 192.235 35.9489C192.337 36.1307 192.479 36.2585 192.661 36.3324C192.849 36.4062 193.065 36.4432 193.309 36.4432C193.479 36.4432 193.65 36.429 193.82 36.4006C193.991 36.3665 194.121 36.3409 194.212 36.3239L194.783 39.0256C194.602 39.0824 194.346 39.1477 194.016 39.2216C193.687 39.3011 193.286 39.3494 192.815 39.3665C191.94 39.4006 191.173 39.2841 190.513 39.017C189.86 38.75 189.352 38.3352 188.988 37.7727C188.624 37.2102 188.445 36.5 188.451 35.642V22.9602ZM196.91 39.1875V26.0966H200.54V39.1875H196.91ZM198.734 24.4091C198.194 24.4091 197.731 24.2301 197.344 23.8722C196.964 23.5085 196.773 23.0739 196.773 22.5682C196.773 22.0682 196.964 21.6392 197.344 21.2812C197.731 20.9176 198.194 20.7358 198.734 20.7358C199.273 20.7358 199.734 20.9176 200.114 21.2812C200.501 21.6392 200.694 22.0682 200.694 22.5682C200.694 23.0739 200.501 23.5085 200.114 23.8722C199.734 24.2301 199.273 24.4091 198.734 24.4091ZM207.08 31.6193V39.1875H203.449V26.0966H206.909V28.4062H207.062C207.352 27.6449 207.838 27.0426 208.52 26.5994C209.202 26.1506 210.028 25.9261 211 25.9261C211.909 25.9261 212.702 26.125 213.378 26.5227C214.054 26.9205 214.58 27.4886 214.955 28.2273C215.33 28.9602 215.517 29.8352 215.517 30.8523V39.1875H211.886V31.5C211.892 30.6989 211.688 30.0739 211.273 29.625C210.858 29.1705 210.287 28.9432 209.56 28.9432C209.071 28.9432 208.639 29.0483 208.264 29.2585C207.895 29.4687 207.605 29.7756 207.395 30.179C207.19 30.5767 207.085 31.0568 207.08 31.6193ZM224.276 44.3693C223.1 44.3693 222.092 44.2074 221.251 43.8835C220.415 43.5653 219.751 43.1307 219.256 42.5795C218.762 42.0284 218.441 41.4091 218.293 40.7216L221.651 40.2699C221.754 40.5313 221.915 40.7756 222.137 41.0028C222.359 41.2301 222.651 41.4119 223.015 41.5483C223.384 41.6903 223.833 41.7614 224.362 41.7614C225.151 41.7614 225.802 41.5682 226.313 41.1818C226.83 40.8011 227.089 40.1619 227.089 39.2642V36.8693H226.935C226.776 37.233 226.538 37.5767 226.219 37.9006C225.901 38.2244 225.492 38.4886 224.992 38.6932C224.492 38.8977 223.896 39 223.202 39C222.219 39 221.325 38.7727 220.518 38.3182C219.717 37.858 219.077 37.1562 218.6 36.2131C218.129 35.2642 217.893 34.0653 217.893 32.6165C217.893 31.1335 218.134 29.8949 218.617 28.9006C219.1 27.9062 219.742 27.1619 220.543 26.6676C221.35 26.1733 222.234 25.9261 223.194 25.9261C223.927 25.9261 224.54 26.0511 225.035 26.3011C225.529 26.5455 225.927 26.8523 226.228 27.2216C226.535 27.5852 226.771 27.9432 226.935 28.2955H227.072V26.0966H230.677V39.3153C230.677 40.429 230.404 41.3608 229.859 42.1108C229.313 42.8608 228.558 43.4233 227.592 43.7983C226.631 44.179 225.526 44.3693 224.276 44.3693ZM224.353 36.2727C224.938 36.2727 225.433 36.1278 225.836 35.8381C226.245 35.5426 226.558 35.1222 226.773 34.5767C226.995 34.0256 227.106 33.3665 227.106 32.5994C227.106 31.8324 226.998 31.1676 226.782 30.6051C226.566 30.0369 226.254 29.5966 225.844 29.2841C225.435 28.9716 224.938 28.8153 224.353 28.8153C223.756 28.8153 223.254 28.9773 222.844 29.3011C222.435 29.6193 222.126 30.0625 221.915 30.6307C221.705 31.1989 221.6 31.8551 221.6 32.5994C221.6 33.3551 221.705 34.0085 221.915 34.5597C222.131 35.1051 222.441 35.5284 222.844 35.8295C223.254 36.125 223.756 36.2727 224.353 36.2727Z" fill="#1A6251"/>
<g clip-path="url(#clip0_18995_12153)">
<path d="M94.5383 55.7975C94.7091 55.3868 95.2909 55.3868 95.4617 55.7975L97.5278 60.7649C97.5998 60.9381 97.7626 61.0563 97.9495 61.0713L103.312 61.5013C103.756 61.5368 103.935 62.0901 103.598 62.3794L99.5117 65.8794C99.3693 66.0014 99.3071 66.1928 99.3506 66.3751L100.599 71.6083C100.702 72.0409 100.231 72.3829 99.8519 72.151L95.2606 69.3467C95.1006 69.249 94.8994 69.249 94.7394 69.3467L90.1481 72.151C89.7685 72.3829 89.2979 72.0409 89.4011 71.6083L90.6494 66.3751C90.6929 66.1928 90.6307 66.0014 90.4883 65.8794L86.4024 62.3794C86.0646 62.0901 86.2444 61.5368 86.6877 61.5013L92.0505 61.0713C92.2374 61.0563 92.4002 60.9381 92.4722 60.7649L94.5383 55.7975Z" fill="#F2F4F7"/>
<g clip-path="url(#clip1_18995_12153)">
<path d="M94.5383 55.7975C94.7091 55.3868 95.2909 55.3868 95.4617 55.7975L97.5278 60.7649C97.5998 60.9381 97.7626 61.0563 97.9495 61.0713L103.312 61.5013C103.756 61.5368 103.935 62.0901 103.598 62.3794L99.5117 65.8794C99.3693 66.0014 99.3071 66.1928 99.3506 66.3751L100.599 71.6083C100.702 72.0409 100.231 72.3829 99.8519 72.151L95.2606 69.3467C95.1006 69.249 94.8994 69.249 94.7394 69.3467L90.1481 72.151C89.7685 72.3829 89.2979 72.0409 89.4011 71.6083L90.6494 66.3751C90.6929 66.1928 90.6307 66.0014 90.4883 65.8794L86.4024 62.3794C86.0646 62.0901 86.2444 61.5368 86.6877 61.5013L92.0505 61.0713C92.2374 61.0563 92.4002 60.9381 92.4722 60.7649L94.5383 55.7975Z" fill="#FDB022"/>
</g>
</g>
<g clip-path="url(#clip2_18995_12153)">
<path d="M118.538 55.7975C118.709 55.3868 119.291 55.3868 119.462 55.7975L121.528 60.7649C121.6 60.9381 121.763 61.0563 121.949 61.0713L127.312 61.5013C127.756 61.5368 127.935 62.0901 127.598 62.3794L123.512 65.8794C123.369 66.0014 123.307 66.1928 123.351 66.3751L124.599 71.6083C124.702 72.0409 124.231 72.3829 123.852 72.151L119.261 69.3467C119.101 69.249 118.899 69.249 118.739 69.3467L114.148 72.151C113.769 72.3829 113.298 72.0409 113.401 71.6083L114.649 66.3751C114.693 66.1928 114.631 66.0014 114.488 65.8794L110.402 62.3794C110.065 62.0901 110.244 61.5368 110.688 61.5013L116.051 61.0713C116.237 61.0563 116.4 60.9381 116.472 60.7649L118.538 55.7975Z" fill="#F2F4F7"/>
<g clip-path="url(#clip3_18995_12153)">
<path d="M118.538 55.7975C118.709 55.3868 119.291 55.3868 119.462 55.7975L121.528 60.7649C121.6 60.9381 121.763 61.0563 121.949 61.0713L127.312 61.5013C127.756 61.5368 127.935 62.0901 127.598 62.3794L123.512 65.8794C123.369 66.0014 123.307 66.1928 123.351 66.3751L124.599 71.6083C124.702 72.0409 124.231 72.3829 123.852 72.151L119.261 69.3467C119.101 69.249 118.899 69.249 118.739 69.3467L114.148 72.151C113.769 72.3829 113.298 72.0409 113.401 71.6083L114.649 66.3751C114.693 66.1928 114.631 66.0014 114.488 65.8794L110.402 62.3794C110.065 62.0901 110.244 61.5368 110.688 61.5013L116.051 61.0713C116.237 61.0563 116.4 60.9381 116.472 60.7649L118.538 55.7975Z" fill="#FDB022"/>
</g>
</g>
<g clip-path="url(#clip4_18995_12153)">
<path d="M142.538 55.7975C142.709 55.3868 143.291 55.3868 143.462 55.7975L145.528 60.7649C145.6 60.9381 145.763 61.0563 145.949 61.0713L151.312 61.5013C151.756 61.5368 151.935 62.0901 151.598 62.3794L147.512 65.8794C147.369 66.0014 147.307 66.1928 147.351 66.3751L148.599 71.6083C148.702 72.0409 148.231 72.3829 147.852 72.151L143.261 69.3467C143.101 69.249 142.899 69.249 142.739 69.3467L138.148 72.151C137.769 72.3829 137.298 72.0409 137.401 71.6083L138.649 66.3751C138.693 66.1928 138.631 66.0014 138.488 65.8794L134.402 62.3794C134.065 62.0901 134.244 61.5368 134.688 61.5013L140.051 61.0713C140.237 61.0563 140.4 60.9381 140.472 60.7649L142.538 55.7975Z" fill="#F2F4F7"/>
<g clip-path="url(#clip5_18995_12153)">
<path d="M142.538 55.7975C142.709 55.3868 143.291 55.3868 143.462 55.7975L145.528 60.7649C145.6 60.9381 145.763 61.0563 145.949 61.0713L151.312 61.5013C151.756 61.5368 151.935 62.0901 151.598 62.3794L147.512 65.8794C147.369 66.0014 147.307 66.1928 147.351 66.3751L148.599 71.6083C148.702 72.0409 148.231 72.3829 147.852 72.151L143.261 69.3467C143.101 69.249 142.899 69.249 142.739 69.3467L138.148 72.151C137.769 72.3829 137.298 72.0409 137.401 71.6083L138.649 66.3751C138.693 66.1928 138.631 66.0014 138.488 65.8794L134.402 62.3794C134.065 62.0901 134.244 61.5368 134.688 61.5013L140.051 61.0713C140.237 61.0563 140.4 60.9381 140.472 60.7649L142.538 55.7975Z" fill="#FDB022"/>
</g>
</g>
<g clip-path="url(#clip6_18995_12153)">
<path d="M166.538 55.7975C166.709 55.3868 167.291 55.3868 167.462 55.7975L169.528 60.7649C169.6 60.9381 169.763 61.0563 169.949 61.0713L175.312 61.5013C175.756 61.5368 175.935 62.0901 175.598 62.3794L171.512 65.8794C171.369 66.0014 171.307 66.1928 171.351 66.3751L172.599 71.6083C172.702 72.0409 172.231 72.3829 171.852 72.151L167.261 69.3467C167.101 69.249 166.899 69.249 166.739 69.3467L162.148 72.151C161.769 72.3829 161.298 72.0409 161.401 71.6083L162.649 66.3751C162.693 66.1928 162.631 66.0014 162.488 65.8794L158.402 62.3794C158.065 62.0901 158.244 61.5368 158.688 61.5013L164.051 61.0713C164.237 61.0563 164.4 60.9381 164.472 60.7649L166.538 55.7975Z" fill="#F2F4F7"/>
<g clip-path="url(#clip7_18995_12153)">
<path d="M166.538 55.7975C166.709 55.3868 167.291 55.3868 167.462 55.7975L169.528 60.7649C169.6 60.9381 169.763 61.0563 169.949 61.0713L175.312 61.5013C175.756 61.5368 175.935 62.0901 175.598 62.3794L171.512 65.8794C171.369 66.0014 171.307 66.1928 171.351 66.3751L172.599 71.6083C172.702 72.0409 172.231 72.3829 171.852 72.151L167.261 69.3467C167.101 69.249 166.899 69.249 166.739 69.3467L162.148 72.151C161.769 72.3829 161.298 72.0409 161.401 71.6083L162.649 66.3751C162.693 66.1928 162.631 66.0014 162.488 65.8794L158.402 62.3794C158.065 62.0901 158.244 61.5368 158.688 61.5013L164.051 61.0713C164.237 61.0563 164.4 60.9381 164.472 60.7649L166.538 55.7975Z" fill="#FDB022"/>
</g>
</g>
<g clip-path="url(#clip8_18995_12153)">
<path d="M190.538 55.7975C190.709 55.3868 191.291 55.3868 191.462 55.7975L193.528 60.7649C193.6 60.9381 193.763 61.0563 193.949 61.0713L199.312 61.5013C199.756 61.5368 199.935 62.0901 199.598 62.3794L195.512 65.8794C195.369 66.0014 195.307 66.1928 195.351 66.3751L196.599 71.6083C196.702 72.0409 196.231 72.3829 195.852 72.151L191.261 69.3467C191.101 69.249 190.899 69.249 190.739 69.3467L186.148 72.151C185.769 72.3829 185.298 72.0409 185.401 71.6083L186.649 66.3751C186.693 66.1928 186.631 66.0014 186.488 65.8794L182.402 62.3794C182.065 62.0901 182.244 61.5368 182.688 61.5013L188.051 61.0713C188.237 61.0563 188.4 60.9381 188.472 60.7649L190.538 55.7975Z" fill="#F2F4F7"/>
<g clip-path="url(#clip9_18995_12153)">
<path d="M190.538 55.7975C190.709 55.3868 191.291 55.3868 191.462 55.7975L193.528 60.7649C193.6 60.9381 193.763 61.0563 193.949 61.0713L199.312 61.5013C199.756 61.5368 199.935 62.0901 199.598 62.3794L195.512 65.8794C195.369 66.0014 195.307 66.1928 195.351 66.3751L196.599 71.6083C196.702 72.0409 196.231 72.3829 195.852 72.151L191.261 69.3467C191.101 69.249 190.899 69.249 190.739 69.3467L186.148 72.151C185.769 72.3829 185.298 72.0409 185.401 71.6083L186.649 66.3751C186.693 66.1928 186.631 66.0014 186.488 65.8794L182.402 62.3794C182.065 62.0901 182.244 61.5368 182.688 61.5013L188.051 61.0713C188.237 61.0563 188.4 60.9381 188.472 60.7649L190.538 55.7975Z" fill="#FDB022"/>
</g>
</g>
<path d="M266.816 40.3514C266.822 39.8666 266.833 39.3824 266.804 38.8984L266.746 37.447L266.687 36.7791C267.742 36.9802 269.298 36.7752 270.153 36.4039C272.213 35.5085 273.864 32.5503 274.326 31.5492C273.214 31.5164 269.8 31.6747 268.077 33.1075C267.549 33.5466 266.933 34.3668 266.534 35.1787L266.446 34.5608C266.375 34.0823 266.316 33.6022 266.234 33.1261C266.081 32.3787 265.953 31.6264 265.78 30.8845C266.779 30.8915 268.138 30.479 268.853 30.0199C270.617 28.8879 271.685 25.9186 271.956 24.9285C270.925 25.0644 267.798 25.72 266.429 27.2956C266.036 27.7476 265.624 28.5171 265.374 29.275C265.026 27.9793 264.603 26.7046 264.122 25.4534C265.136 25.4256 266.595 24.8277 267.308 24.2558C268.94 22.945 269.679 19.8827 269.842 18.8708C268.829 19.1146 265.789 20.096 264.599 21.806C264.187 22.398 263.797 23.4529 263.682 24.3612C263.207 23.229 262.688 22.1146 262.115 21.0292C263.113 20.8421 264.467 20.0058 265.077 19.3208C266.466 17.7611 266.674 14.6256 266.662 13.6024C265.704 14.0098 262.869 15.4777 261.985 17.3571C261.688 17.9885 261.486 19.044 261.512 19.9397C261.445 19.8238 261.378 19.7088 261.31 19.5939C260.694 18.5472 260.034 17.5275 259.33 16.5386C260.217 16.2266 261.352 15.1907 261.796 14.44C262.775 12.7843 262.396 9.9079 262.2 8.98368C261.403 9.52041 259.093 11.3472 258.63 13.2045C258.473 13.8307 258.482 14.8293 258.671 15.6379C258.465 15.3639 258.256 15.0927 258.043 14.824C257.549 14.2001 257.035 13.5917 256.504 12.9995C257.215 12.5266 257.981 11.3302 258.198 10.5547C258.67 8.86252 257.664 6.40699 257.275 5.63544C256.702 6.2957 255.103 8.44879 255.132 10.1995C255.14 10.6932 255.309 11.3893 255.572 11.9969C255.101 11.5062 254.616 11.0271 254.121 10.5601C254.251 9.70602 253.752 8.24937 253.238 7.55697C252.162 6.10754 249.502 5.3425 248.619 5.15987C248.785 6.03326 249.504 8.66822 250.953 9.75844C251.617 10.2586 252.997 10.7596 253.876 10.7029C254.473 11.2906 255.052 11.8962 255.611 12.5195C255.005 12.169 254.121 11.9263 253.551 11.9232C252.018 11.9147 250.152 13.3097 249.582 13.8089C250.262 14.1361 252.424 14.9781 253.9 14.5569C254.597 14.3582 255.677 13.653 256.054 13.0223C256.631 13.687 257.185 14.3707 257.715 15.0731C257.952 15.3888 258.186 15.7073 258.414 16.0295C257.813 15.7078 256.992 15.4902 256.451 15.4872C254.918 15.4792 253.052 16.8737 252.482 17.3728C253.162 17.7002 255.324 18.5421 256.8 18.1208C257.455 17.9339 258.449 17.2996 258.88 16.6998C259.577 17.7251 260.228 18.7807 260.83 19.8625C260.912 20.0079 260.992 20.1543 261.072 20.301C260.526 19.8286 259.774 19.4149 259.232 19.2721C257.593 18.84 255.198 19.8256 254.445 20.2045C255.08 20.7444 257.155 22.2473 258.856 22.2012C259.632 22.1806 260.928 21.7487 261.541 21.2001C262.115 22.3424 262.626 23.5149 263.09 24.7039C262.576 24.187 261.839 23.712 261.3 23.5315C259.694 22.9928 257.24 23.8207 256.463 24.1494C257.06 24.7298 259.028 26.3658 260.726 26.4318C261.49 26.4614 262.783 26.1263 263.44 25.6314C263.905 26.9002 264.309 28.191 264.634 29.5011C264.272 28.9824 263.818 28.5053 263.432 28.2403C261.92 27.203 259.107 27.3489 258.196 27.4661C258.643 28.2502 260.2 30.5454 261.952 31.1144C262.733 31.3674 264.162 31.3986 265.002 31.0831C265.157 31.8072 265.269 32.5398 265.403 33.2671C265.475 33.7349 265.524 34.2069 265.586 34.676L265.668 35.341C265.329 34.6898 264.818 34.0406 264.382 33.6961C262.944 32.5617 260.13 32.523 259.213 32.58C259.606 33.3927 261.003 35.7861 262.713 36.4683C263.476 36.7727 264.908 36.8969 265.766 36.6333L265.828 37.505L265.859 38.9254C265.88 39.3985 265.86 39.8718 265.846 40.3452L265.825 41.055C265.825 41.0837 265.824 41.1125 265.823 41.1419C265.559 40.4208 265.088 39.6615 264.666 39.2519C263.354 37.9794 260.56 37.661 259.643 37.6261C259.95 38.4745 261.093 40.9966 262.722 41.8465C263.451 42.2264 264.866 42.4928 265.746 42.3136L265.677 43.1803C265.643 43.6523 265.562 44.1211 265.507 44.5912L265.416 45.2954C265.385 45.53 265.335 45.7622 265.295 45.9955L265.263 46.171C265.068 45.5994 264.794 45.0559 264.52 44.7054C263.339 43.1917 260.475 42.4658 259.525 42.3011C259.721 43.23 260.545 46.0247 262.118 47.141C262.749 47.5889 263.966 48.0182 264.89 48.0574C264.602 49.2912 264.265 50.5137 263.874 51.7183C263.821 51.136 263.692 50.5678 263.519 50.1749C262.747 48.4214 260.152 47.0344 259.273 46.6483C259.235 47.5982 259.347 50.5131 260.597 51.9732C261.128 52.5941 262.302 53.3517 263.214 53.5655C263.131 53.7723 263.047 53.9787 262.967 54.1858L262.703 54.8461L262.409 55.4944C262.208 55.9252 262.027 56.3634 261.812 56.7866L261.591 57.217C261.637 56.5845 261.598 55.9555 261.482 55.505C260.962 53.4878 258.424 51.5546 257.549 50.989C257.342 52.0045 256.949 55.1579 258.032 56.9403C258.496 57.7048 259.637 58.7306 260.581 59.1082L260.473 59.2995L260.122 59.9191C260.005 60.1258 259.871 60.3224 259.746 60.5243L258.983 61.7274L258.168 62.8975C258.262 62.2614 258.271 61.6198 258.188 61.1559C257.818 59.1056 255.429 56.9956 254.599 56.3697C254.318 57.3681 253.695 60.4873 254.644 62.344C255.03 63.1001 256.008 64.1349 256.888 64.6171C256.745 64.8052 256.599 64.9912 256.443 65.1704L255.532 66.2703C255.218 66.6282 254.892 66.9761 254.572 67.3291C254.411 67.5052 254.256 67.6863 254.09 67.858L253.586 68.3655C253.566 68.3854 253.546 68.4062 253.525 68.4259C253.829 67.5572 253.991 66.5604 253.943 65.8781C253.779 63.5412 251.369 60.9005 250.518 60.1019C250.082 61.1858 249.008 64.6011 249.841 66.7892C250.199 67.728 251.251 69.09 252.218 69.6935L251.511 70.3406C251.162 70.6683 250.779 70.9565 250.418 71.27L249.868 71.7319C249.685 71.8877 249.489 72.0248 249.3 72.172L248.155 73.0422L247.117 73.7568C247.561 72.9695 247.891 72.0475 247.97 71.3838C248.246 69.0533 246.376 66.016 245.691 65.0759C245.06 66.0641 243.367 69.2324 243.775 71.5371C243.948 72.5117 244.705 74.0134 245.527 74.793C244.045 75.7183 242.503 76.5485 240.914 77.292C241.512 76.701 242.036 75.9961 242.292 75.4357C243.273 73.2911 242.434 69.8297 242.072 68.727C241.168 69.4827 238.583 72.0041 238.26 74.3288C238.115 75.3684 238.411 77.1669 239.016 78.1284C237.785 78.6399 236.53 79.1024 235.258 79.5188C235.225 79.5299 235.204 79.5635 235.211 79.5975C235.219 79.6343 235.255 79.6571 235.293 79.6494C236.644 79.3559 237.979 78.9883 239.294 78.5492C239.472 79.9262 240.859 81.9419 241.944 82.7828C244.232 84.5543 248.679 84.5748 250.126 84.4721C249.494 83.194 247.251 79.4334 244.54 78.3797C243.662 78.038 242.229 77.852 240.992 77.9395C242.71 77.2769 244.385 76.494 246 75.5989C246.484 76.9042 248.156 78.5608 249.345 79.1775C251.922 80.5133 256.308 79.7486 257.715 79.3922C256.859 78.2488 253.964 74.9509 251.101 74.3944C250.254 74.2301 248.974 74.2742 247.843 74.5144C249.764 73.3143 251.586 71.9531 253.281 70.4479C253.802 71.5776 255.184 72.9205 256.185 73.4389C258.491 74.6343 262.416 73.9498 263.675 73.6309C262.909 72.6079 260.318 69.6569 257.757 69.159C256.902 68.9928 255.555 69.0646 254.46 69.3573C254.839 68.9923 255.211 68.6203 255.575 68.2405C256.461 67.3359 257.287 66.3766 258.068 65.3835C258.84 66.3659 260.593 67.3536 261.728 67.6064C264.275 68.1728 267.897 66.5167 269.032 65.8897C268.023 65.0983 264.74 62.9119 262.128 63.0828C261.28 63.1387 260.039 63.5294 259.067 64.0665C259.158 63.9421 259.248 63.8178 259.338 63.6927L260.171 62.4755L260.944 61.2213C261.07 61.0104 261.206 60.8056 261.323 60.5901L261.678 59.9455L261.783 59.7533C262.663 60.5219 264.233 61.1796 265.244 61.2974C267.69 61.5827 270.926 59.6818 271.929 58.9846C270.902 58.3406 267.603 56.6087 265.169 57.021C264.459 57.1409 263.48 57.5444 262.666 58.0573C263.292 56.7625 263.837 55.4326 264.331 54.0864C265.312 54.7349 267.005 55.17 268.04 55.1384C270.506 55.0632 273.423 52.7144 274.312 51.8795C273.198 51.3929 269.67 50.1639 267.322 50.9258C266.608 51.157 265.651 51.7351 264.908 52.3941C265.324 51.0613 265.672 49.7105 265.963 48.3479C267.001 48.9136 268.791 49.1806 269.842 49.035C272.287 48.6973 274.931 46.0524 275.724 45.1287C274.562 44.7647 270.916 43.9205 268.663 44.9281C267.913 45.2632 266.919 46.0419 266.239 46.8537L266.355 46.1475C266.391 45.9076 266.438 45.6687 266.466 45.4276L266.547 44.7032C266.595 44.2202 266.668 43.7391 266.695 43.2544L266.737 42.5667C267.749 42.9458 269.431 42.94 270.369 42.6602C272.523 42.0173 274.525 39.2752 275.106 38.3358C274.008 38.1702 270.603 37.9187 268.719 39.1366C268.089 39.5429 267.302 40.3851 266.806 41.212C266.807 41.1667 266.807 41.121 266.808 41.0757L266.815 40.3487L266.816 40.3514Z" fill="#207B63"/>
<defs>
<clipPath id="clip0_18995_12153">
<rect width="20" height="20" fill="white" transform="translate(85 54.1875)"/>
</clipPath>
<clipPath id="clip1_18995_12153">
<rect width="20" height="20" fill="white" transform="translate(85 54.1875)"/>
</clipPath>
<clipPath id="clip2_18995_12153">
<rect width="20" height="20" fill="white" transform="translate(109 54.1875)"/>
</clipPath>
<clipPath id="clip3_18995_12153">
<rect width="20" height="20" fill="white" transform="translate(109 54.1875)"/>
</clipPath>
<clipPath id="clip4_18995_12153">
<rect width="20" height="20" fill="white" transform="translate(133 54.1875)"/>
</clipPath>
<clipPath id="clip5_18995_12153">
<rect width="20" height="20" fill="white" transform="translate(133 54.1875)"/>
</clipPath>
<clipPath id="clip6_18995_12153">
<rect width="20" height="20" fill="white" transform="translate(157 54.1875)"/>
</clipPath>
<clipPath id="clip7_18995_12153">
<rect width="20" height="20" fill="white" transform="translate(157 54.1875)"/>
</clipPath>
<clipPath id="clip8_18995_12153">
<rect width="20" height="20" fill="white" transform="translate(181 54.1875)"/>
</clipPath>
<clipPath id="clip9_18995_12153">
<rect width="13" height="20" fill="white" transform="translate(181 54.1875)"/>
</clipPath>
</defs>
</svg>
