<svg width="59" height="40" viewBox="0 0 59 40" fill="none" xmlns="http://www.w3.org/2000/svg">
<path d="M1 6C1 2.96243 3.46243 0.5 6.5 0.5H52.5C55.5376 0.5 58 2.96243 58 6V34C58 37.0376 55.5376 39.5 52.5 39.5H6.5C3.46243 39.5 1 37.0376 1 34V6Z" fill="white"/>
<path d="M1 6C1 2.96243 3.46243 0.5 6.5 0.5H52.5C55.5376 0.5 58 2.96243 58 6V34C58 37.0376 55.5376 39.5 52.5 39.5H6.5C3.46243 39.5 1 37.0376 1 34V6Z" stroke="#EAECF0"/>
<path fill-rule="evenodd" clip-rule="evenodd" d="M18.4171 26.4304H14.9842L12.4099 16.3206C12.2877 15.8556 12.0283 15.4444 11.6467 15.2507C10.6943 14.7637 9.64486 14.3762 8.5 14.1807V13.7915H14.0301C14.7934 13.7915 15.3658 14.3762 15.4612 15.0552L16.7969 22.3477L20.2281 13.7915H23.5656L18.4171 26.4304ZM25.4737 26.4304H22.2316L24.9013 13.7915H28.1434L25.4737 26.4304ZM32.3378 17.2929C32.4332 16.6121 33.0057 16.2229 33.6735 16.2229C34.723 16.1252 35.8661 16.3206 36.8202 16.8059L37.3926 14.0847C36.4386 13.6955 35.3891 13.5 34.4367 13.5C31.2901 13.5 29.0003 15.2507 29.0003 17.6804C29.0003 19.5288 30.6222 20.4993 31.7671 21.084C33.0057 21.667 33.4827 22.0563 33.3873 22.6393C33.3873 23.5137 32.4332 23.903 31.4809 23.903C30.336 23.903 29.1911 23.6115 28.1434 23.1245L27.5709 25.8474C28.7158 26.3327 29.9544 26.5281 31.0992 26.5281C34.6276 26.6242 36.8202 24.8752 36.8202 22.25C36.8202 18.9441 32.3378 18.7504 32.3378 17.2929ZM48.1667 26.4304L45.5924 13.7915H42.8273C42.2549 13.7915 41.6825 14.1807 41.4917 14.7637L36.7248 26.4304H40.0623L40.7284 24.5837H44.8292L45.2108 26.4304H48.1667ZM43.3044 17.1951L44.2567 21.9585H41.5871L43.3044 17.1951Z" fill="#172B85"/>
</svg>
