<svg width="195" height="221" viewBox="0 0 195 221" fill="none" xmlns="http://www.w3.org/2000/svg">
<path d="M121.352 89.9721C121.352 89.9721 90.3596 43.0079 84.1003 30.2757C77.841 17.5435 71.3081 0 71.3081 0C71.3081 0 0.502016 45.8326 0.502016 126.186C0.502016 126.186 -0.635261 175.414 51.115 188.997C51.115 188.997 56.515 160.138 60.923 150.8C60.923 150.8 60.4954 95.6299 60.923 94.4984C61.3505 93.3668 62.7742 134.392 65.6174 144.576C65.6174 144.576 79.2647 112.888 121.352 89.9721Z" fill="#F9EECC"/>
<path d="M194.483 75.4399C194.483 75.4399 197.613 212.73 119.686 220.638C119.686 220.638 88.9705 223.182 58.542 205.101C58.542 205.101 57.9733 163.009 84.4208 130.525C110.868 98.0405 157.225 78.8294 194.483 75.4399ZM81.0085 209.06C99.2117 197.477 126.519 153.125 126.519 153.125L81.0085 209.06Z" fill="#F9EECC"/>
</svg>
