<svg width="33" height="32" viewBox="0 0 33 32" fill="none" xmlns="http://www.w3.org/2000/svg">
<g id="play">
<path id="Icon" d="M7.16602 6.65285C7.16602 5.35796 7.16602 4.71052 7.436 4.35362C7.67121 4.0427 8.03071 3.8503 8.41988 3.82707C8.8666 3.8004 9.4053 4.15953 10.4827 4.8778L24.5035 14.225C25.3937 14.8185 25.8388 15.1152 25.9939 15.4892C26.1296 15.8163 26.1296 16.1838 25.9939 16.5108C25.8388 16.8848 25.3937 17.1815 24.5035 17.775L10.4827 27.1222C9.4053 27.8405 8.8666 28.1996 8.41988 28.1729C8.03071 28.1497 7.67121 27.9573 7.436 27.6464C7.16602 27.2895 7.16602 26.6421 7.16602 25.3472V6.65285Z" stroke="#F9EECC" stroke-width="2" stroke-linecap="round" stroke-linejoin="round"/>
</g>
</svg>
