<svg width="24" height="24" viewBox="0 0 24 24" fill="none" xmlns="http://www.w3.org/2000/svg">
<g id="Bold / Video, Audio, Sound / Pause">
<g id="Vector">
<path d="M3 6.6C3 4.90294 3 4.05442 3.52721 3.52721C4.05442 3 4.90294 3 6.6 3C8.29706 3 9.14558 3 9.67279 3.52721C10.2 4.05442 10.2 4.90294 10.2 6.6V17.4C10.2 19.0971 10.2 19.9456 9.67279 20.4728C9.14558 21 8.29706 21 6.6 21C4.90294 21 4.05442 21 3.52721 20.4728C3 19.9456 3 19.0971 3 17.4V6.6Z" fill="currentColor"/>
<path d="M13.8 6.6C13.8 4.90294 13.8 4.05442 14.3272 3.52721C14.8544 3 15.7029 3 17.4 3C19.0971 3 19.9456 3 20.4728 3.52721C21 4.05442 21 4.90294 21 6.6V17.4C21 19.0971 21 19.9456 20.4728 20.4728C19.9456 21 19.0971 21 17.4 21C15.7029 21 14.8544 21 14.3272 20.4728C13.8 19.9456 13.8 19.0971 13.8 17.4V6.6Z" fill="currentColor"/>
</g>
</g>
</svg>
