<svg width="100" height="114" viewBox="0 0 100 114" fill="none" xmlns="http://www.w3.org/2000/svg">
<path d="M62.2951 46.4803C62.2951 46.4803 46.3194 22.272 43.093 15.709C39.8665 9.14596 36.499 0.102905 36.499 0.102905C36.499 0.102905 0.00103913 23.728 0.00103913 65.1475C0.00103913 65.1475 -0.585186 90.5225 26.0902 97.524C26.0902 97.524 28.8737 82.6482 31.1459 77.835C31.1459 77.835 30.9255 49.3967 31.1459 48.8135C31.3663 48.2302 32.1001 69.3774 33.5657 74.6269C33.5657 74.6269 40.6004 58.2929 62.2951 46.4803Z" fill="#1A6251"/>
<path d="M99.9911 38.9893C99.9911 38.9893 101.605 109.757 61.4358 113.834C61.4358 113.834 45.6033 115.145 29.9185 105.825C29.9185 105.825 29.6253 84.1281 43.2581 67.3836C56.8908 50.6391 80.7862 40.7365 99.9911 38.9893ZM41.4992 107.866C50.8823 101.895 64.9581 79.0334 64.9581 79.0334L41.4992 107.866Z" fill="#1A6251"/>
</svg>
