<svg width="24" height="24" viewBox="0 0 24 24" fill="none" xmlns="http://www.w3.org/2000/svg">
<path d="M22 21.0002V19.0002C22 17.1364 20.7252 15.5703 19 15.1263M15.5 3.291C16.9659 3.88439 18 5.32156 18 7.00024C18 8.67893 16.9659 10.1161 15.5 10.7095M17 21.0002C17 19.1365 17 18.2046 16.6955 17.4695C16.2895 16.4894 15.5108 15.7107 14.5307 15.3047C13.7956 15.0002 12.8638 15.0002 11 15.0002H8C6.13623 15.0002 5.20435 15.0002 4.46927 15.3047C3.48915 15.7107 2.71046 16.4894 2.30448 17.4695C2 18.2046 2 19.1365 2 21.0002M13.5 7.00024C13.5 9.20938 11.7091 11.0002 9.5 11.0002C7.29086 11.0002 5.5 9.20938 5.5 7.00024C5.5 4.79111 7.29086 3.00024 9.5 3.00024C11.7091 3.00024 13.5 4.79111 13.5 7.00024Z" stroke="#667085" stroke-width="2" stroke-linecap="round" stroke-linejoin="round"/>
</svg>
