<svg width="52" height="52" viewBox="0 0 52 52" fill="none" xmlns="http://www.w3.org/2000/svg">
<g filter="url(#filter0_d_16757_22759)">
<path d="M2.5 11C2.5 5.75329 6.75329 1.5 12 1.5H40C45.2467 1.5 49.5 5.75329 49.5 11V39C49.5 44.2467 45.2467 48.5 40 48.5H12C6.75329 48.5 2.5 44.2467 2.5 39V11Z" stroke="#EAECF0" shape-rendering="crispEdges"/>
<path d="M26.7076 31.3639L25.2933 32.7781C23.3407 34.7308 20.1749 34.7308 18.2223 32.7781C16.2697 30.8255 16.2697 27.6597 18.2223 25.7071L19.6365 24.2929M32.3644 25.7071L33.7786 24.2929C35.7312 22.3402 35.7312 19.1744 33.7786 17.2218C31.826 15.2692 28.6602 15.2692 26.7076 17.2218L25.2933 18.636M22.5005 28.4999L29.5005 21.4999" stroke="#475467" stroke-width="2" stroke-linecap="round" stroke-linejoin="round"/>
</g>
<defs>
<filter id="filter0_d_16757_22759" x="0" y="0" width="52" height="52" filterUnits="userSpaceOnUse" color-interpolation-filters="sRGB">
<feFlood flood-opacity="0" result="BackgroundImageFix"/>
<feColorMatrix in="SourceAlpha" type="matrix" values="0 0 0 0 0 0 0 0 0 0 0 0 0 0 0 0 0 0 127 0" result="hardAlpha"/>
<feOffset dy="1"/>
<feGaussianBlur stdDeviation="1"/>
<feComposite in2="hardAlpha" operator="out"/>
<feColorMatrix type="matrix" values="0 0 0 0 0.0627451 0 0 0 0 0.0941176 0 0 0 0 0.156863 0 0 0 0.05 0"/>
<feBlend mode="normal" in2="BackgroundImageFix" result="effect1_dropShadow_16757_22759"/>
<feBlend mode="normal" in="SourceGraphic" in2="effect1_dropShadow_16757_22759" result="shape"/>
</filter>
</defs>
</svg>
