<svg width="21" height="20" viewBox="0 0 21 20" fill="none" xmlns="http://www.w3.org/2000/svg">
<g id="list">
<path id="Icon" d="M18 10.0001L8 10.0001M18 5.00008L8 5.00008M18 15.0001L8 15.0001M4.66667 10.0001C4.66667 10.4603 4.29357 10.8334 3.83333 10.8334C3.3731 10.8334 3 10.4603 3 10.0001C3 9.53984 3.3731 9.16675 3.83333 9.16675C4.29357 9.16675 4.66667 9.53984 4.66667 10.0001ZM4.66667 5.00008C4.66667 5.46032 4.29357 5.83341 3.83333 5.83341C3.3731 5.83341 3 5.46032 3 5.00008C3 4.53984 3.3731 4.16675 3.83333 4.16675C4.29357 4.16675 4.66667 4.53984 4.66667 5.00008ZM4.66667 15.0001C4.66667 15.4603 4.29357 15.8334 3.83333 15.8334C3.3731 15.8334 3 15.4603 3 15.0001C3 14.5398 3.3731 14.1667 3.83333 14.1667C4.29357 14.1667 4.66667 14.5398 4.66667 15.0001Z" stroke="currentColor" stroke-width="1.66667" stroke-linecap="round" stroke-linejoin="round"/>
</g>
</svg>
