<svg width="41" height="40" viewBox="0 0 41 40" fill="none" xmlns="http://www.w3.org/2000/svg">
<g id="log-in-03">
<path id="Icon" d="M10.5 28.3332C10.5 28.9187 10.5 29.2115 10.5261 29.466C10.7429 31.5789 12.271 33.3243 14.3368 33.8185C14.5856 33.878 14.8758 33.9167 15.4561 33.994L26.4427 35.4589C29.5701 35.8759 31.1338 36.0844 32.3474 35.6018C33.4129 35.1782 34.3005 34.4011 34.8613 33.4009C35.5 32.2617 35.5 30.6842 35.5 27.5291V12.4707C35.5 9.31562 35.5 7.73809 34.8613 6.59888C34.3005 5.59868 33.4129 4.82163 32.3474 4.39796C31.1338 3.91539 29.5701 4.12388 26.4427 4.54087L15.4561 6.00574C14.8758 6.08313 14.5856 6.12182 14.3368 6.18134C12.271 6.67549 10.7429 8.42085 10.5261 10.5338C10.5 10.7883 10.5 11.0811 10.5 11.6666M20.5 13.3332L27.1667 19.9999M27.1667 19.9999L20.5 26.6666M27.1667 19.9999H5.5" stroke="#D0D5DD" stroke-width="1.66667" stroke-linecap="round" stroke-linejoin="round"/>
</g>
</svg>
