<svg width="28" height="28" viewBox="0 0 28 28" fill="none" xmlns="http://www.w3.org/2000/svg">
<path d="M2.33301 8.16663L11.8587 14.8346C12.6301 15.3746 13.0158 15.6446 13.4353 15.7492C13.8059 15.8415 14.1935 15.8415 14.564 15.7492C14.9836 15.6446 15.3692 15.3746 16.1406 14.8346L25.6663 8.16663M7.93301 23.3333H20.0663C22.0265 23.3333 23.0066 23.3333 23.7553 22.9518C24.4139 22.6163 24.9493 22.0808 25.2849 21.4223C25.6663 20.6736 25.6663 19.6935 25.6663 17.7333V10.2666C25.6663 8.30644 25.6663 7.32635 25.2849 6.57766C24.9493 5.91909 24.4139 5.38366 23.7553 5.0481C23.0066 4.66663 22.0265 4.66663 20.0663 4.66663H7.93301C5.97282 4.66663 4.99273 4.66663 4.24404 5.0481C3.58547 5.38366 3.05004 5.91909 2.71448 6.57766C2.33301 7.32635 2.33301 8.30644 2.33301 10.2666V17.7333C2.33301 19.6935 2.33301 20.6736 2.71448 21.4223C3.05004 22.0808 3.58547 22.6163 4.24404 22.9518C4.99273 23.3333 5.97282 23.3333 7.93301 23.3333Z" stroke="#344054" stroke-width="2" stroke-linecap="round" stroke-linejoin="round"/>
</svg>
