<svg width="24" height="24" viewBox="0 0 24 24" fill="none" xmlns="http://www.w3.org/2000/svg">
<g id="headphones-wave">
<path id="Vector (Stroke)" fill-rule="evenodd" clip-rule="evenodd" d="M1.25005 12.0002C1.25005 6.06318 6.06298 1.25024 12 1.25024C17.9371 1.25024 22.75 6.06318 22.75 12.0002V16.9906C22.7501 17.0622 22.7501 17.1357 22.7501 17.2114C22.7501 17.25 22.75 17.2891 22.75 17.3288V17.5142C22.75 17.5546 22.7501 17.5943 22.7501 17.6336C22.7503 18.5474 22.7505 19.1602 22.5987 19.6973C22.3019 20.7475 21.5885 21.6283 20.6228 22.1087C20.1281 22.3548 19.5366 22.4523 18.6816 22.5931C18.642 22.5996 18.6017 22.6063 18.5609 22.613L18.5393 22.6166C18.2353 22.6668 17.9741 22.7099 17.7571 22.7322C17.5309 22.7554 17.2979 22.7628 17.0589 22.7136C16.2745 22.5521 15.6469 21.9789 15.3837 21.2272C15.3042 21.0003 15.2757 20.7695 15.2627 20.5367C15.25 20.3121 15.25 20.0382 15.25 19.7142V15.1874C15.25 15.1531 15.25 15.1193 15.25 15.0858C15.2495 14.6089 15.2491 14.2128 15.3508 13.8743C15.5835 13.1 16.1985 12.4923 16.9891 12.3023C17.3343 12.2194 17.7272 12.2524 18.1754 12.29C18.2091 12.2928 18.243 12.2957 18.2773 12.2985C18.318 12.3019 18.3582 12.3052 18.3977 12.3084C19.2377 12.3775 19.8184 12.4252 20.3113 12.6158C20.6522 12.7477 20.9673 12.9279 21.25 13.1477V12.0002C21.25 6.89161 17.1087 2.75024 12 2.75024C6.89141 2.75024 2.75005 6.89161 2.75005 12.0002V13.1477C3.03277 12.9279 3.34792 12.7477 3.68881 12.6158C4.18169 12.4252 4.76235 12.3775 5.60236 12.3084C5.64193 12.3052 5.68207 12.3019 5.7228 12.2985C5.75707 12.2957 5.79102 12.2928 5.82467 12.29C6.27289 12.2524 6.66578 12.2194 7.01102 12.3023C7.80159 12.4923 8.41657 13.1 8.64928 13.8743C8.75101 14.2128 8.75061 14.6089 8.75012 15.0858C8.75008 15.1193 8.75005 15.1531 8.75005 15.1874V19.7142C8.75005 20.0381 8.75006 20.3121 8.73743 20.5367C8.72434 20.7695 8.69585 21.0003 8.61642 21.2272C8.35318 21.9789 7.72564 22.5521 6.94119 22.7136C6.70224 22.7628 6.46919 22.7554 6.24301 22.7322C6.02601 22.7099 5.76484 22.6668 5.4608 22.6166L5.43914 22.613C5.39834 22.6063 5.35811 22.5996 5.31846 22.5931C4.46344 22.4523 3.87195 22.3548 3.37731 22.1087C2.41157 21.6283 1.6982 20.7475 1.40136 19.6973C1.27082 19.2353 1.25268 18.7175 1.25033 18.0002L1.25005 17.8578C1.24998 17.7851 1.25 17.7104 1.25002 17.6336C1.25003 17.5943 1.25005 17.5546 1.25005 17.5142V17.3288C1.25005 17.2891 1.25003 17.25 1.25002 17.2114C1.25 17.1359 1.24998 17.0625 1.25005 16.9911V12.0002ZM2.75005 17.5142C2.75005 18.592 2.75704 18.9787 2.84482 19.2893C3.03097 19.9479 3.47252 20.4807 4.04544 20.7658C4.31186 20.8983 4.66021 20.9641 5.68353 21.1331C6.01525 21.1878 6.2306 21.2231 6.39623 21.2401C6.55781 21.2567 6.61652 21.249 6.63859 21.2445C6.88274 21.1942 7.10343 21.0092 7.20071 20.7314C7.21276 20.697 7.23001 20.6265 7.23979 20.4525C7.24977 20.2751 7.25005 20.0436 7.25005 19.6936V15.1874C7.25005 14.5532 7.24194 14.4031 7.21276 14.306C7.12623 14.0181 6.90765 13.8202 6.66065 13.7608C6.58309 13.7422 6.458 13.7429 5.84623 13.7934C4.83829 13.8767 4.49389 13.9127 4.22996 14.0148C3.56286 14.2729 3.03836 14.8559 2.83717 15.6003C2.75653 15.8987 2.75005 16.2774 2.75005 17.3288V17.5142ZM12 5.75024C12.4143 5.75024 12.75 6.08603 12.75 6.50024L12.75 11.5002C12.75 11.9145 12.4143 12.2502 12 12.2502C11.5858 12.2502 11.25 11.9145 11.25 11.5002L11.25 6.50024C11.25 6.08603 11.5858 5.75024 12 5.75024ZM9.00005 7.25024C9.41426 7.25024 9.75005 7.58603 9.75005 8.00024V10.0002C9.75005 10.4145 9.41426 10.7502 9.00005 10.7502C8.58583 10.7502 8.25005 10.4145 8.25005 10.0002V8.00024C8.25005 7.58603 8.58583 7.25024 9.00005 7.25024ZM15 7.25024C15.4143 7.25024 15.75 7.58603 15.75 8.00024V10.0002C15.75 10.4145 15.4143 10.7502 15 10.7502C14.5858 10.7502 14.25 10.4145 14.25 10.0002V8.00024C14.25 7.58603 14.5858 7.25024 15 7.25024ZM18.1539 13.7934C17.5421 13.7429 17.417 13.7422 17.3394 13.7608C17.0924 13.8202 16.8739 14.0181 16.7873 14.306C16.7582 14.4031 16.75 14.5532 16.75 15.1874V19.6936C16.75 20.0436 16.7503 20.2751 16.7603 20.4525C16.7701 20.6265 16.7873 20.697 16.7994 20.7314C16.8967 21.0092 17.1174 21.1942 17.3615 21.2445C17.3836 21.249 17.4423 21.2567 17.6039 21.2401C17.7695 21.2231 17.9848 21.1878 18.3166 21.1331C19.3399 20.9641 19.6882 20.8983 19.9547 20.7658C20.5276 20.4807 20.9691 19.9479 21.1553 19.2893C21.2431 18.9787 21.25 18.592 21.25 17.5142V17.3288C21.25 16.2774 21.2436 15.8987 21.1629 15.6003C20.9617 14.8559 20.4372 14.2729 19.7701 14.0148C19.5062 13.9127 19.1618 13.8767 18.1539 13.7934Z" fill="#667085" stroke="#667085" stroke-width="0.5" stroke-linecap="round"/>
</g>
</svg>
