<svg width="16" height="16" viewBox="0 0 16 16" fill="none" xmlns="http://www.w3.org/2000/svg">
<g id="settings-01" clip-path="url(#clip0_17460_13993)">
<g id="Icon">
<path d="M8.00004 9.99998C9.10461 9.99998 10 9.10455 10 7.99998C10 6.89541 9.10461 5.99998 8.00004 5.99998C6.89547 5.99998 6.00004 6.89541 6.00004 7.99998C6.00004 9.10455 6.89547 9.99998 8.00004 9.99998Z" stroke="#667085" stroke-width="1.5" stroke-linecap="round" stroke-linejoin="round"/>
<path d="M12.4849 9.81816C12.4042 10.001 12.3801 10.2037 12.4158 10.4003C12.4514 10.5969 12.5452 10.7784 12.6849 10.9212L12.7213 10.9576C12.834 11.0701 12.9234 11.2038 12.9844 11.351C13.0454 11.4981 13.0768 11.6558 13.0768 11.8151C13.0768 11.9744 13.0454 12.1322 12.9844 12.2793C12.9234 12.4265 12.834 12.5601 12.7213 12.6727C12.6087 12.7854 12.475 12.8748 12.3278 12.9358C12.1807 12.9968 12.023 13.0282 11.8637 13.0282C11.7044 13.0282 11.5467 12.9968 11.3995 12.9358C11.2524 12.8748 11.1187 12.7854 11.0061 12.6727L10.9697 12.6363C10.8269 12.4966 10.6455 12.4029 10.4489 12.3673C10.2523 12.3316 10.0495 12.3557 9.86671 12.4363C9.68745 12.5132 9.53458 12.6407 9.42689 12.8033C9.31921 12.9659 9.26142 13.1565 9.26065 13.3515V13.4545C9.26065 13.776 9.13294 14.0843 8.90562 14.3116C8.67831 14.5389 8.37 14.6666 8.04853 14.6666C7.72705 14.6666 7.41874 14.5389 7.19143 14.3116C6.96411 14.0843 6.8364 13.776 6.8364 13.4545V13.4C6.83171 13.1994 6.76678 13.0048 6.65005 12.8416C6.53332 12.6784 6.37018 12.5541 6.18186 12.4848C5.99906 12.4042 5.79629 12.3801 5.59968 12.4157C5.40308 12.4514 5.22166 12.5451 5.07883 12.6848L5.04247 12.7212C4.92989 12.8339 4.79621 12.9233 4.64906 12.9843C4.50191 13.0453 4.34418 13.0767 4.18489 13.0767C4.0256 13.0767 3.86787 13.0453 3.72072 12.9843C3.57357 12.9233 3.43989 12.8339 3.32731 12.7212C3.21461 12.6086 3.12521 12.4749 3.06421 12.3278C3.00321 12.1806 2.97181 12.0229 2.97181 11.8636C2.97181 11.7043 3.00321 11.5466 3.06421 11.3994C3.12521 11.2523 3.21461 11.1186 3.32731 11.006L3.36368 10.9697C3.5034 10.8268 3.59712 10.6454 3.63277 10.4488C3.66842 10.2522 3.64435 10.0494 3.56368 9.86665C3.48685 9.68739 3.35929 9.53452 3.19669 9.42683C3.03409 9.31915 2.84355 9.26136 2.64853 9.26059H2.5455C2.22402 9.26059 1.91571 9.13288 1.6884 8.90556C1.46108 8.67825 1.33337 8.36994 1.33337 8.04846C1.33337 7.72699 1.46108 7.41868 1.6884 7.19137C1.91571 6.96405 2.22402 6.83634 2.5455 6.83634H2.60004C2.80064 6.83165 2.9952 6.76672 3.1584 6.64999C3.32161 6.53325 3.44593 6.37012 3.51519 6.1818C3.59587 5.999 3.61993 5.79623 3.58429 5.59962C3.54864 5.40302 3.45491 5.2216 3.31519 5.07877L3.27883 5.0424C3.16613 4.92983 3.07673 4.79615 3.01573 4.649C2.95473 4.50185 2.92333 4.34412 2.92333 4.18483C2.92333 4.02554 2.95473 3.86781 3.01573 3.72066C3.07673 3.57351 3.16613 3.43983 3.27883 3.32725C3.3914 3.21455 3.52509 3.12515 3.67223 3.06415C3.81938 3.00315 3.97711 2.97175 4.1364 2.97175C4.2957 2.97175 4.45343 3.00315 4.60057 3.06415C4.74772 3.12515 4.88141 3.21455 4.99398 3.32725L5.03034 3.36362C5.17318 3.50334 5.3546 3.59706 5.5512 3.63271C5.7478 3.66836 5.95058 3.64429 6.13337 3.56362H6.18186C6.36111 3.48679 6.51399 3.35923 6.62167 3.19663C6.72936 3.03403 6.78714 2.84349 6.78792 2.64846V2.54543C6.78792 2.22396 6.91563 1.91565 7.14294 1.68834C7.37026 1.46102 7.67857 1.33331 8.00004 1.33331C8.32152 1.33331 8.62982 1.46102 8.85714 1.68834C9.08446 1.91565 9.21216 2.22396 9.21216 2.54543V2.59998C9.21294 2.795 9.27073 2.98554 9.37841 3.14814C9.48609 3.31074 9.63897 3.43831 9.81822 3.51513C10.001 3.59581 10.2038 3.61987 10.4004 3.58422C10.597 3.54858 10.7784 3.45485 10.9213 3.31513L10.9576 3.27877C11.0702 3.16607 11.2039 3.07666 11.351 3.01566C11.4982 2.95467 11.6559 2.92327 11.8152 2.92327C11.9745 2.92327 12.1322 2.95467 12.2794 3.01566C12.4265 3.07666 12.5602 3.16607 12.6728 3.27877C12.7855 3.39134 12.8749 3.52502 12.9359 3.67217C12.9969 3.81932 13.0283 3.97705 13.0283 4.13634C13.0283 4.29563 12.9969 4.45336 12.9359 4.60051C12.8749 4.74766 12.7855 4.88135 12.6728 4.99392L12.6364 5.03028C12.4967 5.17312 12.403 5.35453 12.3673 5.55114C12.3317 5.74774 12.3557 5.95052 12.4364 6.13331V6.1818C12.5132 6.36105 12.6408 6.51393 12.8034 6.62161C12.966 6.72929 13.1565 6.78708 13.3516 6.78786H13.4546C13.7761 6.78786 14.0844 6.91556 14.3117 7.14288C14.539 7.3702 14.6667 7.67851 14.6667 7.99998C14.6667 8.32145 14.539 8.62976 14.3117 8.85708C14.0844 9.0844 13.7761 9.2121 13.4546 9.2121H13.4C13.205 9.21288 13.0145 9.27067 12.8519 9.37835C12.6893 9.48603 12.5617 9.63891 12.4849 9.81816Z" stroke="#667085" stroke-width="1.5" stroke-linecap="round" stroke-linejoin="round"/>
</g>
</g>
<defs>
<clipPath id="clip0_17460_13993">
<rect width="16" height="16" fill="white"/>
</clipPath>
</defs>
</svg>
