<svg width="72" height="80" viewBox="0 0 72 80" fill="none" xmlns="http://www.w3.org/2000/svg">
<path d="M44.6446 32.6044C44.6446 32.6044 33.4132 15.5854 31.145 10.9714C28.8767 6.35748 26.5093 0 26.5093 0C26.5093 0 0.85034 16.609 0.85034 45.7279C0.85034 45.7279 0.43821 63.5671 19.1917 68.4893C19.1917 68.4893 21.1485 58.0313 22.7459 54.6475C22.7459 54.6475 22.591 34.6547 22.7459 34.2447C22.9008 33.8346 23.4168 48.7016 24.4471 52.3922C24.4471 52.3922 29.3927 40.9089 44.6446 32.6044Z" fill="#1A6251"/>
<path d="M71.1459 27.3381C71.1459 27.3381 72.2801 77.0896 44.0406 79.9556C44.0406 79.9556 32.91 80.8776 21.8832 74.3252C21.8832 74.3252 21.6771 59.0718 31.2612 47.3C40.8454 35.5282 57.6444 28.5664 71.1459 27.3381ZM30.0247 75.7598C36.6212 71.5624 46.5168 55.4901 46.5168 55.4901L30.0247 75.7598Z" fill="#1A6251"/>
</svg>
