<svg width="24" height="24" viewBox="0 0 24 24" fill="none" xmlns="http://www.w3.org/2000/svg">
<path d="M12 22.0002C17.5228 22.0002 22 17.5231 22 12.0002C22 6.4774 17.5228 2.00024 12 2.00024C6.47715 2.00024 2 6.4774 2 12.0002C2 17.5231 6.47715 22.0002 12 22.0002Z" stroke="#667085" stroke-width="2" stroke-linecap="round" stroke-linejoin="round"/>
<path d="M9.5 8.96558C9.5 8.48829 9.5 8.24965 9.59974 8.11642C9.68666 8.00032 9.81971 7.92768 9.96438 7.91735C10.1304 7.90549 10.3311 8.03454 10.7326 8.29263L15.4532 11.3273C15.8016 11.5513 15.9758 11.6632 16.0359 11.8056C16.0885 11.93 16.0885 12.0704 16.0359 12.1949C15.9758 12.3372 15.8016 12.4492 15.4532 12.6732L10.7326 15.7079C10.3311 15.9659 10.1304 16.095 9.96438 16.0831C9.81971 16.0728 9.68666 16.0002 9.59974 15.8841C9.5 15.7508 9.5 15.5122 9.5 15.0349V8.96558Z" stroke="#667085" stroke-width="2" stroke-linecap="round" stroke-linejoin="round"/>
</svg>
