<svg width="300" height="300" viewBox="0 0 300 300" fill="none" xmlns="http://www.w3.org/2000/svg">
    <g opacity="0.4">
        <path d="M156.871 42.9935C151.476 31.363 148.778 25.5478 144.017 25.0565C139.256 24.5652 135.585 29.7232 128.244 40.0392L126.344 42.7081C124.258 45.6396 123.215 47.1053 121.713 47.9885C120.211 48.8716 118.42 49.0721 114.837 49.4732L111.576 49.8383C98.9706 51.2497 92.6679 51.9553 90.7937 56.3474C88.9196 60.7395 92.7153 65.9092 100.307 76.2487L102.271 78.9237C104.428 81.8618 105.507 83.3309 105.898 85.0511C106.289 86.7712 105.949 88.5476 105.268 92.1005L104.649 95.3351C102.254 107.838 101.056 114.089 104.659 117.295C108.261 120.501 114.278 118.538 126.312 114.612L129.425 113.596C132.844 112.481 134.554 111.923 136.298 112.103C138.042 112.283 139.623 113.18 142.784 114.975L145.662 116.609C156.788 122.925 162.35 126.083 166.451 123.672C170.552 121.261 170.475 114.878 170.32 102.112L170.28 98.8095C170.236 95.1819 170.215 93.368 170.901 91.7591C171.588 90.1502 172.905 88.9284 175.539 86.4847L177.938 84.26C187.209 75.6606 191.844 71.3609 190.776 66.6652C189.708 61.9695 183.643 59.9876 171.514 56.0237L168.376 54.9982C164.93 53.8718 163.207 53.3086 161.887 52.1343C160.567 50.96 159.801 49.3074 158.267 46.0024L156.871 42.9935Z" fill="#1A6251"/>
        <g opacity="0.5">
            <path fill-rule="evenodd" clip-rule="evenodd" d="M140.074 140.985C145.053 142.408 147.935 147.597 146.513 152.575C141.932 168.608 140.833 191.87 141.557 215.177C142.273 238.249 144.733 260.369 146.765 273.574C147.552 278.691 144.042 283.478 138.924 284.266C133.807 285.053 129.02 281.543 128.233 276.425C126.098 262.547 123.558 239.667 122.816 215.759C122.081 192.087 123.065 166.391 128.484 147.424C129.907 142.446 135.096 139.563 140.074 140.985Z" fill="#1A6251"/>
            <path fill-rule="evenodd" clip-rule="evenodd" d="M283.099 114.026C285.708 118.498 284.197 124.239 279.725 126.847C208.328 168.496 190.626 235.736 190.626 275C190.626 280.177 186.429 284.375 181.251 284.375C176.073 284.375 171.876 280.177 171.876 275C171.876 230.93 191.674 156.504 270.277 110.652C274.749 108.043 280.49 109.553 283.099 114.026Z" fill="#1A6251"/>
        </g>
        <path d="M64.1683 172.067C63.8842 170.722 66.0279 169.485 67.0504 170.403C70.0223 173.072 74.0335 176.112 77.7822 177.116C81.531 178.121 86.5246 177.494 90.433 176.668C91.7777 176.384 93.0153 178.528 92.097 179.55C89.4278 182.522 86.3881 186.534 85.3836 190.282C84.3792 194.031 85.006 199.025 85.8316 202.933C86.1157 204.278 83.972 205.515 82.9495 204.597C79.9776 201.928 75.9664 198.888 72.2176 197.884C68.4689 196.879 63.4753 197.506 59.5669 198.332C58.2222 198.616 56.9846 196.472 57.9029 195.45C60.5721 192.478 63.6118 188.466 64.6162 184.718C65.6207 180.969 64.9939 175.975 64.1683 172.067Z" fill="#1A6251"/>
    </g>
</svg>
