<svg width="36" height="35" viewBox="0 0 36 35" fill="none" xmlns="http://www.w3.org/2000/svg">
<g id="Random Icon 1">
<path id="Vector" fill-rule="evenodd" clip-rule="evenodd" d="M24.5173 21.9381C27.6601 21.6109 29.058 18.3682 27.9671 15.613C26.4498 11.7827 20.1646 11.5071 18.8677 17.7639C16.9128 27.1944 6.98779 26.324 4.57109 20.3587C2.75313 15.8713 5.42337 10.82 10.4825 10.4152L10.4832 8.88C10.4821 8.21307 11.2175 7.77753 11.813 8.11931L16.7748 10.9618C17.3646 11.2895 17.3842 12.1443 16.7851 12.4889L11.8665 15.3063C11.2866 15.6962 10.4811 15.2897 10.4811 14.5764L10.4818 13.0755C7.38647 13.4661 5.91513 16.5988 7.04021 19.3769C8.57788 23.1715 14.9543 23.5526 16.263 17.2363C18.2104 7.84404 28.0641 8.63764 30.4466 14.6514C32.2135 19.1151 29.6193 24.2609 24.5184 24.5946L24.5188 26.1191C24.5188 26.8321 23.7135 27.2386 23.1334 26.8487L18.2147 24.0313C17.6156 23.687 17.6352 22.8319 18.2254 22.5042L23.1872 19.6621C23.7827 19.3199 24.518 19.7558 24.517 20.4224L24.5173 21.9381Z" fill="white"/>
</g>
</svg>
