<svg width="40" height="41" viewBox="0 0 40 41" fill="none" xmlns="http://www.w3.org/2000/svg">
    <path opacity="0.5" d="M3.33301 20.154C3.33301 12.2972 3.33301 8.36886 5.77378 5.92808C8.21456 3.4873 12.1429 3.4873 19.9997 3.4873C27.8564 3.4873 31.7848 3.4873 34.2256 5.92808C36.6663 8.36886 36.6663 12.2972 36.6663 20.154C36.6663 28.0107 36.6663 31.9391 34.2256 34.3799C31.7848 36.8206 27.8564 36.8206 19.9997 36.8206C12.1429 36.8206 8.21456 36.8206 5.77378 34.3799C3.33301 31.9391 3.33301 28.0107 3.33301 20.154Z" fill="#207B63"/>
    <path d="M21.2503 11.8213C21.2503 11.1309 20.6907 10.5713 20.0003 10.5713C19.31 10.5713 18.7503 11.1309 18.7503 11.8213V28.488C18.7503 29.1783 19.31 29.738 20.0003 29.738C20.6907 29.738 21.2503 29.1783 21.2503 28.488V11.8213Z" fill="#207B63"/>
    <path d="M12.917 15.1546C12.917 14.4643 12.3573 13.9046 11.667 13.9046C10.9766 13.9046 10.417 14.4643 10.417 15.1546V25.1546C10.417 25.845 10.9766 26.4046 11.667 26.4046C12.3573 26.4046 12.917 25.845 12.917 25.1546V15.1546Z" fill="#207B63"/>
    <path d="M29.5837 16.8213C29.5837 16.1309 29.024 15.5713 28.3337 15.5713C27.6433 15.5713 27.0837 16.1309 27.0837 16.8213V23.488C27.0837 24.1783 27.6433 24.738 28.3337 24.738C29.024 24.738 29.5837 24.1783 29.5837 23.488V16.8213Z" fill="#207B63"/>
</svg>
