<svg width="22" height="22" viewBox="0 0 22 22" fill="none" xmlns="http://www.w3.org/2000/svg">
    <path d="M0.5 6C0.5 2.96243 2.96243 0.5 6 0.5H16C19.0376 0.5 21.5 2.96243 21.5 6V16C21.5 19.0376 19.0376 21.5 16 21.5H6C2.96243 21.5 0.5 19.0376 0.5 16V6Z" fill="#F2F4F7"/>
    <path d="M0.5 6C0.5 2.96243 2.96243 0.5 6 0.5H16C19.0376 0.5 21.5 2.96243 21.5 6V16C21.5 19.0376 19.0376 21.5 16 21.5H6C2.96243 21.5 0.5 19.0376 0.5 16V6Z" stroke="#D0D5DD"/>
    <path d="M13.5 10V9C13.5 7.61929 12.3807 6.5 11 6.5C9.61929 6.5 8.5 7.61929 8.5 9V10M11 12.25V13.25M9.4 15.5H12.6C13.4401 15.5 13.8601 15.5 14.181 15.3365C14.4632 15.1927 14.6927 14.9632 14.8365 14.681C15 14.3601 15 13.9401 15 13.1V12.4C15 11.5599 15 11.1399 14.8365 10.819C14.6927 10.5368 14.4632 10.3073 14.181 10.1635C13.8601 10 13.4401 10 12.6 10H9.4C8.55992 10 8.13988 10 7.81901 10.1635C7.53677 10.3073 7.3073 10.5368 7.16349 10.819C7 11.1399 7 11.5599 7 12.4V13.1C7 13.9401 7 14.3601 7.16349 14.681C7.3073 14.9632 7.53677 15.1927 7.81901 15.3365C8.13988 15.5 8.55992 15.5 9.4 15.5Z" stroke="#98A2B3" stroke-width="1.5" stroke-linecap="round" stroke-linejoin="round"/>
</svg>
