<svg width="13" height="13" viewBox="0 0 13 13" fill="none" xmlns="http://www.w3.org/2000/svg">
    <g clip-path="url(#clip0_18740_6758)">
        <path d="M9 5.07715V4.07715C9 2.69644 7.88071 1.57715 6.5 1.57715C5.11929 1.57715 4 2.69644 4 4.07715V5.07715M6.5 7.32715V8.32715M4.9 10.5771H8.1C8.94008 10.5771 9.36012 10.5771 9.68099 10.4137C9.96323 10.2698 10.1927 10.0404 10.3365 9.75813C10.5 9.43727 10.5 9.01723 10.5 8.17715V7.47715C10.5 6.63707 10.5 6.21703 10.3365 5.89616C10.1927 5.61392 9.96323 5.38445 9.68099 5.24064C9.36012 5.07715 8.94008 5.07715 8.1 5.07715H4.9C4.05992 5.07715 3.63988 5.07715 3.31901 5.24064C3.03677 5.38445 2.8073 5.61392 2.66349 5.89616C2.5 6.21703 2.5 6.63707 2.5 7.47715V8.17715C2.5 9.01723 2.5 9.43727 2.66349 9.75813C2.8073 10.0404 3.03677 10.2698 3.31901 10.4137C3.63988 10.5771 4.05992 10.5771 4.9 10.5771Z" stroke="#207B63" stroke-width="1.5" stroke-linecap="round" stroke-linejoin="round"/>
    </g>
    <defs>
        <clipPath id="clip0_18740_6758">
            <rect width="12" height="12" fill="white" transform="translate(0.5 0.0771484)"/>
        </clipPath>
    </defs>
</svg>
