<svg width="13" height="12" viewBox="0 0 13 12" fill="none" xmlns="http://www.w3.org/2000/svg">
    <path d="M3 2.49476C3 2.00917 3 1.76638 3.10125 1.63255C3.18945 1.51595 3.32426 1.4438 3.4702 1.43509C3.63772 1.42509 3.83973 1.55976 4.24376 1.82912L9.50154 5.3343C9.83538 5.55686 10.0023 5.66815 10.0605 5.80841C10.1113 5.93103 10.1113 6.06885 10.0605 6.19148C10.0023 6.33174 9.83538 6.44302 9.50154 6.66558L4.24376 10.1708C3.83973 10.4401 3.63772 10.5748 3.4702 10.5648C3.32426 10.5561 3.18945 10.4839 3.10125 10.3673C3 10.2335 3 9.99071 3 9.50513V2.49476Z" stroke="#667085" stroke-width="1.5" stroke-linecap="round" stroke-linejoin="round"/>
</svg>
