<svg width="40" height="40" viewBox="0 0 40 40" fill="none" xmlns="http://www.w3.org/2000/svg">
    <path opacity="0.5" fill-rule="evenodd" clip-rule="evenodd" d="M3.33301 19.9996C3.33301 17.9384 3.33301 16.1475 3.37708 14.583H36.6223C36.6663 16.1475 36.6663 17.9384 36.6663 19.9996C36.6663 27.8564 36.6663 31.7847 34.2256 34.2255C31.7848 36.6663 27.8564 36.6663 19.9997 36.6663C12.1429 36.6663 8.21456 36.6663 5.77378 34.2255C3.33301 31.7847 3.33301 27.8564 3.33301 19.9996Z" fill="#207B63"/>
    <path d="M25.0003 24.167C25.0003 23.1114 23.897 22.3995 21.6903 20.9757C19.4534 19.5324 18.335 18.8108 17.501 19.3406C16.667 19.8705 16.667 21.3027 16.667 24.167C16.667 27.0313 16.667 28.4635 17.501 28.9934C18.335 29.5232 19.4535 28.8015 21.6903 27.3583C23.897 25.9345 25.0003 25.2226 25.0003 24.167Z" fill="#207B63"/>
    <path d="M19.9999 3.33301C23.0752 3.33301 25.5487 3.33301 27.5667 3.47939L21.8309 12.083H14.0022L19.8355 3.33301H19.9999Z" fill="#207B63"/>
    <path d="M5.77398 5.77378C7.86126 3.68651 11.0364 3.38421 16.826 3.34042L10.9976 12.083H3.50684C3.75225 9.14289 4.34454 7.20322 5.77398 5.77378Z" fill="#207B63"/>
    <path d="M36.4929 12.083C36.2475 9.14289 35.6552 7.20322 34.2258 5.77378C33.2302 4.77824 31.9872 4.18876 30.3311 3.83972L24.8355 12.083H36.4929Z" fill="#207B63"/>
</svg>
