<svg width="48" height="48" viewBox="0 0 48 48" fill="none" xmlns="http://www.w3.org/2000/svg">
    <path d="M0 24C0 10.7452 10.7452 0 24 0C37.2548 0 48 10.7452 48 24C48 37.2548 37.2548 48 24 48C10.7452 48 0 37.2548 0 24Z" fill="#F2F4F7"/>
    <path d="M0.375 24C0.375 10.9523 10.9523 0.375 24 0.375C37.0477 0.375 47.625 10.9523 47.625 24C47.625 37.0477 37.0477 47.625 24 47.625C10.9523 47.625 0.375 37.0477 0.375 24Z" stroke="black" stroke-opacity="0.08" stroke-width="0.75"/>
    <path d="M13.5 33.3333C16.2251 30.443 19.9249 28.6667 24 28.6667C28.0752 28.6667 31.7749 30.443 34.5 33.3333M29.25 18.75C29.25 21.6495 26.8995 24 24 24C21.1005 24 18.75 21.6495 18.75 18.75C18.75 15.8505 21.1005 13.5 24 13.5C26.8995 13.5 29.25 15.8505 29.25 18.75Z" stroke="#667085" stroke-width="2" stroke-linecap="round" stroke-linejoin="round"/>
</svg>
